<?xml version="1.0" encoding="UTF-8"?>
<svg id="Layer_1" data-name="Layer 1" xmlns="http://www.w3.org/2000/svg" viewBox="0 0 64 64">
  <defs>
    <style>
      .cls-1 {
        fill: #3185bf;
      }
    </style>
  </defs>
  <path class="cls-1" d="M32,52.59c.16,0,.29-.29.29-.64s-.13-.64-.29-.64-.29.29-.29.64.13.64.29.64Z"/>
  <path class="cls-1" d="M32,26.14c-.27,0-.74.14-.74.63,0,.34.65,1.05.74,1.15h0s0,0,0,0c.09-.1.74-.81.74-1.15,0-.49-.46-.63-.74-.63ZM32,27.41h0s0,0,0,0c-.04-.05-.36-.4-.36-.56,0-.24.23-.31.36-.31.14,0,.36.07.36.31,0,.17-.32.51-.36.56Z"/>
  <path class="cls-1" d="M49.14,32.23c-.23,0-.44.1-.59.26-.09-.19-.15-.42-.12-.69.03-.37.07-.92.16-1.55.18-1.14-.07-3.27-1.07-5.21-.97-1.89-2.68-4.04-5.54-4.23-2.1-2.15-4.48-1.63-6.7-2.45-.23-.09-.43-.19-.59-.3.45-.73.73-1.44.8-1.66.25-.8.97-.95,1.6-.17.07.08.2.03.19-.07-.07-1.51-1.54-1.94-2.13-2.99-.34-.61-.21-1.06-1.83-2.73-1.02-1.04-1.19-2.67-1.22-3.25.07-.04.12-.11.12-.2,0-.13-.1-.23-.23-.23s-.23.1-.23.23c0,.09.05.16.12.2-.03.58-.2,2.21-1.22,3.25-1.62,1.66-1.49,2.12-1.83,2.73-.59,1.05-2.06,1.48-2.13,2.99,0,.11.13.16.19.07.63-.77,1.36-.63,1.6.17.07.22.35.93.8,1.66-.17.11-.36.21-.59.3-2.22.83-4.6.31-6.7,2.45-2.86.2-4.57,2.35-5.54,4.23-1,1.94-1.25,4.07-1.07,5.21.1.62.13,1.17.16,1.55.02.27-.03.5-.12.69-.19-.2-.48-.31-.79-.23-.28.07-.51.3-.58.59-.12.53.28.99.78.99.19,0,.37-.07.51-.18.71-.49.56-1.8.51-2.89-.09-1.87.09-3.6,1.52-5.85,1.36-2.14,3.32-3.05,4.06-3.34-.13.23-.25.48-.35.76-3.42,1.66-4.35,6-4.49,7.16-.14,1.17-.06,3.63-.31,4.25-.26.63-1.04.52-1.44.53-.15,0-.19.19-.07.27.27.17.76.39,1.48.38.85-.01,2.31-.71,3.15-.1.74.54.73,1.65.72,1.9-.11-.02-.23-.04-.35-.04-.9,0-1.62.67-1.62,1.5,0,.71.52,1.5,1.62,1.5.9,0,1.63-.76,1.62-1.86,0-3.16-1.38-4.22-1.38-6.28,0-.56.26-1.81,1.08-3.04s2.08-3.03,2.14-3.95c.08-1.33-.67-1.96-.67-1.96,1.04-1.7,2.4-2.77,5.99-3.33.61-.09.99-.35,1.21-.55.21.26.43.5.68.69-.48.62-2.54,2.7-4.33,2.4-.11-.02-.22.07-.21.19.05.67.05,2.6-1.18,3.91-1.52,1.61-2.85,2.74-2.85,5.16s.45,4.2.49,4.71c.08.99-.08,1.04-.17,1.26-.06.14.13.31.26.14.07-.09.29-.47.32-1.55.03-1.3-.08-3.26.62-4.15,0,0,.33,1.08,1.07.21,0,0,.98,1.14,1.77,1.14s1.52-.53,1.87-.63c.29-.08.56-.08.69-.07.04,0,.06.05.04.08-.11.17-.41.58-.88.66-.6.1-1.73.23-2.35.68-.62.45-1.01,1.35-1.01,1.35,0,0-.18-.31-.59-.31s-.63.35-.63.69c0,.36.31.59.75.59s.67-.53,1.09-1.02c.42-.49.96-1.18,1.99-1.4,1.03-.22,1.68-.5,2.22-1.3l.2.19s-1.2,1.09-1.43,1.77c0,0-1.05-.22-1.62.23s-.64,1.16-.64,1.16c0,0-2.24-.09-1.71,3.2-1.23.71-2.12,1.57-2.12,3.97,0,2.74,2.17,4.73,5.11,5.02,0,0,1.09.85,2.46.86,0,.03,0,.06.01.09.07.21.28.77.55,1.2-.21.12-.55.24-1.07.24-.59,0-1.05-.58-1.49-1.13-.07-.09-.13-.17-.2-.25-.17-.2-.41-.32-.67-.32s-.52.12-.69.33c-.16.21-.22.48-.16.74.13.57.48,1.51,1.01,2.32.62.93,1.37,1.51,2.2,1.69.17.44.52,1.18,1.15,2.13.1.15.18.3.26.45.27.65.35.84.52,1.79.14.77.26,1.56.52,2.32.13.37.16.99.16,1.47-.32.09-.55.39-.55.73,0,.42.34.77.77.77s.77-.34.77-.77c0-.35-.23-.64-.55-.73,0-.48.01-1.09.14-1.47.27-.76.38-1.55.52-2.32.18-.95.27-1.14.54-1.79.08-.15.16-.3.26-.45.63-.95.98-1.7,1.15-2.13.83-.18,1.58-.76,2.2-1.69.53-.81.88-1.75,1.01-2.32.06-.26,0-.53-.16-.74-.16-.21-.42-.33-.69-.33s-.5.12-.67.32c-.06.08-.13.16-.2.25-.44.56-.9,1.13-1.49,1.13-.53,0-.86-.12-1.07-.24.28-.43.49-.98.55-1.2,0-.03,0-.06.01-.09,1.37-.01,2.46-.86,2.46-.86,2.94-.29,5.11-2.28,5.11-5.02,0-2.4-.88-3.26-2.12-3.97.52-3.29-1.71-3.2-1.71-3.2,0,0-.08-.71-.64-1.16-.57-.45-1.62-.23-1.62-.23-.23-.68-1.43-1.77-1.43-1.77l.2-.19c.55.8,1.19,1.08,2.22,1.3,1.03.22,1.57.91,1.99,1.4.42.49.66,1.02,1.09,1.02s.75-.23.75-.59-.22-.69-.63-.69-.59.31-.59.31c0,0-.39-.9-1.01-1.35s-1.75-.58-2.35-.68c-.48-.08-.78-.49-.88-.66-.02-.03,0-.08.04-.08.13,0,.4,0,.69.07.36.1,1.08.63,1.87.63s1.77-1.14,1.77-1.14c.73.87,1.07-.21,1.07-.21.69.89.59,2.85.62,4.15.02,1.08.24,1.46.32,1.55.14.17.32,0,.26-.14-.09-.22-.24-.27-.17-1.26.04-.51.49-2.28.49-4.71s-1.34-3.56-2.85-5.16c-1.23-1.31-1.23-3.23-1.18-3.91,0-.12-.09-.21-.21-.19-1.79.3-3.86-1.77-4.33-2.4.25-.2.47-.43.68-.69.22.21.6.46,1.21.55,3.59.56,4.95,1.63,5.99,3.33,0,0-.76.63-.67,1.96.06.92,1.32,2.71,2.14,3.95s1.08,2.49,1.08,3.04c0,2.06-1.37,3.12-1.38,6.28,0,1.11.73,1.86,1.62,1.86,1.1,0,1.62-.8,1.62-1.5,0-.83-.73-1.5-1.62-1.5-.12,0-.24.01-.35.04-.01-.24-.02-1.35.72-1.9.84-.61,2.3.09,3.15.1.71,0,1.21-.22,1.48-.38.12-.08.08-.27-.07-.27-.4,0-1.19.1-1.44-.53-.25-.61-.17-3.08-.31-4.25-.14-1.17-1.07-5.5-4.49-7.16-.1-.28-.22-.53-.35-.76.74.28,2.71,1.19,4.06,3.34,1.42,2.25,1.6,3.98,1.52,5.85-.05,1.09-.2,2.4.51,2.89.18.15.43.23.7.16.29-.07.52-.31.59-.6.11-.52-.28-.98-.78-.98ZM28.8,29.55c-.69-1.27-2.09-1.67-2.09-1.67,0,0,1.11-1.16,1-4.54,0,0,1.32-.57,1.99-1.75.45-.8.95-1.5,1.22-1.87.81.8.94,1.68.66,2.16-.32.54-1.1.69-1.3.81s-.76.41-.75,1.1c0,0-2.22.45-.81,2.74,0,0-.31,1.29.96,2.37.84.71,1.41,1.29,1.69,1.6.15.16.15.43-.02.57-.03.03-.07.05-.1.08-.48.29-.79.45-.93.58,0,0-.5-.34-1.5-2.18ZM32.21,34.45s0,0,0,0c-.02,0-.04,0-.06-.01-.05,0-.09-.01-.14-.01,0,0,0,0,0,0s0,0,0,0c-.05,0-.1,0-.14.01-.02,0-.04,0-.06.01,0,0,0,0,0,0-.24-.75-.71-1.55-1.03-2.05.66-.44.88-.58,1.24-.58s.58.14,1.24.58c-.32.5-.79,1.3-1.03,2.05ZM32.47,35.31c0,.26-.21.47-.47.47-.26,0-.47-.21-.47-.47s.21-.47.47-.47c.26,0,.47.21.47.47ZM30.87,27.42c-.3-.39-.59-.9-.59-1.28,0-.3.18-.66.64-.66.61,0,.79.39,1.07.39s.47-.39,1.08-.39c.46,0,.64.36.64.66,0,.38-.29.89-.59,1.28-.33.44-.92,1.2-1.13,1.49-.22-.28-.8-1.05-1.13-1.49ZM31.96,25.14c-.23,0-.42-.42-.42-.93s.19-.93.42-.93.42.42.42.93-.19.93-.42.93ZM32,20.85c-.07-.5-.24-1.09-.61-1.61.15-.15.36-.34.61-.46.25.12.47.31.61.46-.38.51-.54,1.1-.61,1.61ZM32.29,17.38s-.18-.34-.29-.34-.27.32-.29.34c-.08.16-.4.59-.76.78-.09.05-.21-.03-.18-.13.06-.29.18-.79.41-1.08.24-.32.53-.54.82-.54s.58.22.82.54c.22.3.35.8.41,1.08.02.1-.09.19-.18.13-.35-.2-.67-.62-.76-.78ZM28.11,46.96c-1.48-1.05-1.07-2.17-.81-2.37.82-.61,2,.93,2.46,1.58.49.68,1.12,1.23,1.45,1.5.08.07.04.2-.07.2-.57.01-1.85-.07-3.04-.91ZM33.91,48.85c-.09.27-.25.67-.56,1.03.19.19.63.48,1.48.48.74,0,1.26-.66,1.72-1.25.07-.08.13-.17.2-.24.11-.13.27-.21.44-.21s.34.08.45.22c.11.14.15.31.11.49-.13.54-.46,1.45-.97,2.22-.61.92-1.36,1.47-2.17,1.59-.14.39-.48,1.18-1.18,2.23-.44.66-.66,1.37-.76,1.95h0s0,.06-.02.15c0,.03,0,.05-.01.08-.07.43-.24,1.42-.46,2.26,0,0-.03.15-.16.15s-.16-.15-.16-.15c-.22-.84-.39-1.83-.46-2.26,0-.02,0-.05-.01-.08-.01-.09-.02-.14-.02-.14h0c-.11-.59-.33-1.3-.76-1.96-.7-1.06-1.04-1.85-1.18-2.23-.81-.12-1.56-.67-2.17-1.59-.51-.77-.84-1.68-.97-2.22-.04-.17,0-.35.11-.49.11-.14.28-.22.45-.22s.33.08.44.21c.06.08.13.16.2.24.46.58.99,1.25,1.72,1.25.85,0,1.29-.29,1.48-.48-.31-.36-.48-.76-.56-1.03l-.12-.32c.13-.01.26-.03.39-.05,0,0,.12.81.76,1.37,0,0-.41.86-1.94.86-1.03,0-1.67-.99-2.19-1.62-.15-.18-.44-.04-.39.19.22.94,1.21,3.49,3.05,3.57,0,0,.27.93,1.21,2.37.86,1.29.93,2.94.93,3.46,0,.11.09.21.21.21s.21-.09.21-.21c0-.52.07-2.17.93-3.46.95-1.44,1.21-2.37,1.21-2.37,1.84-.07,2.83-2.62,3.05-3.57.05-.23-.24-.37-.39-.19-.52.63-1.16,1.62-2.19,1.62-1.53,0-1.94-.86-1.94-.86.63-.57.76-1.37.76-1.37.13.03.26.04.39.05l-.12.32ZM32,50.65c.12.2.36.54.72.76,0,0-.2.57-.08.96,0,0-.67.8-.65,1.3h0c.03-.51-.65-1.3-.65-1.3.13-.39-.08-.96-.08-.96.36-.21.6-.56.72-.76ZM31.73,48.65c0-.28.1-.51.23-.51s.23.23.23.51-.1.51-.23.51-.23-.23-.23-.51ZM35.89,46.96c-1.18.84-2.47.92-3.04.91-.1,0-.15-.13-.07-.2.33-.27.96-.82,1.45-1.5.46-.64,1.64-2.19,2.46-1.58.26.19.67,1.32-.81,2.37ZM34.48,35.06c-.07.14-.02.3.12.37.6.3,2.02,1.14,2.66,2.8.83,2.14-.64,2.64-.64,2.64.28,1.67-1.16,1.74-1.77,1.61-.11-.02-.19.1-.15.2.36,1.05.15,1.67-.29,2.17-1.12,1.27-2.12,2.05-2.4,2.26-.29-.21-1.28-.99-2.4-2.26-.44-.5-.65-1.12-.29-2.17.04-.1-.05-.22-.15-.2-.61.12-2.05.06-1.77-1.61,0,0-1.47-.5-.64-2.64.64-1.66,2.06-2.51,2.66-2.8.14-.07.19-.24.12-.37-.22-.42-.48-1.33.66-2.25.73.74,1.01,1.61,1.1,1.98,0,0,0,.01,0,.02,0,0-.01.02-.02.03-.02.04-.04.08-.06.12,0,0,0,.02-.01.02-.04.1-.07.21-.07.33,0,.24.1.46.26.62-.06.29-.24.79-.82.97-.84.26-.86.67-.93.86-.07.18-.48.76-1.35.36-.07-.03-.15.02-.15.09-.03.52,0,2.17,1.72,2.55,0,0,.07.91.98,1.46,0,0-.79,1.46,1.19,2.76,1.98-1.29,1.19-2.76,1.19-2.76.91-.55.98-1.46.98-1.46,1.71-.38,1.75-2.03,1.72-2.55,0-.08-.08-.12-.15-.09-.87.4-1.28-.17-1.35-.36-.07-.19-.1-.6-.93-.86-.58-.18-.77-.69-.82-.97.16-.16.26-.38.26-.62,0-.12-.03-.23-.07-.33,0,0,0-.02-.01-.02-.02-.04-.04-.08-.06-.12,0,0-.01-.02-.02-.03,0,0,0-.01,0-.02.09-.37.37-1.23,1.1-1.98,1.14.92.88,1.83.66,2.25ZM34.3,21.59c.67,1.18,1.99,1.75,1.99,1.75-.11,3.38,1,4.54,1,4.54,0,0-1.39.4-2.09,1.67-1,1.84-1.5,2.18-1.5,2.18-.14-.13-.45-.29-.93-.58-.04-.02-.07-.05-.1-.08-.17-.15-.17-.41-.02-.57.28-.31.85-.89,1.69-1.6,1.27-1.08.96-2.37.96-2.37,1.41-2.29-.81-2.74-.81-2.74,0-.69-.55-.99-.75-1.1s-.99-.27-1.3-.81c-.28-.48-.15-1.36.66-2.16.27.37.76,1.07,1.22,1.87ZM34.07,17.43c-.47-.73-.49-1.63-.81-2.31-.29-.61-.74-.88-1.07-1.01-.07-.03-.13-.04-.2-.04s-.12.01-.2.04c-.33.12-.78.4-1.07,1.01-.32.68-.33,1.59-.81,2.31-.43-.56-.8-1.06-1.11-1.42-.19-.22-.36-.4-.5-.55-.06-.06-.05-.17.03-.21.14-.06.28-.12.42-.17.86-.29,1.07-.29,1.67-.97.36-.41.24-.61,1.04-1.12.23-.15.4-.33.52-.5.12.17.29.35.52.5.8.52.68.72,1.04,1.12.59.68.8.67,1.67.97.14.05.28.11.42.17.08.04.1.15.03.21-.15.14-.32.32-.5.55-.31.36-.68.86-1.11,1.42Z"/>
  <path class="cls-1" d="M35.98,45.32c-.29-.22-.72.34-.88.57-.18.24-.42.53-.52.64-.06.07-.02.14.08.12.3-.05.61-.18,1.03-.48.53-.38.38-.78.29-.85Z"/>
  <path class="cls-1" d="M28.9,45.89c-.17-.23-.59-.78-.88-.57-.09.07-.24.47.29.85.42.3.73.43,1.03.48.1.02.15-.05.08-.12-.1-.12-.35-.4-.52-.64Z"/>
  <path class="cls-1" d="M25.72,16.75c.23,0,.45-.13.56-.36.08-.17.09-.43.12-.64,0-.04.02-.08.03-.12.2-.79.76-1.28,1.26-1.73.34-.3.65-.58.84-.92.07-.13.12-.25.18-.4.19-.49.44-1.1,1.71-2.41.89-.92,1.07-2.59,1.11-2.96.07-.57.41-1.1.46-1.18.05.08.39.61.46,1.18.05.37.22,2.04,1.11,2.96,1.27,1.31,1.52,1.92,1.71,2.41.06.14.11.27.18.4.19.34.51.62.84.92.5.45,1.06.94,1.26,1.73,0,.04.02.08.03.12.04.21.04.47.12.64.12.23.33.36.56.36.35,0,.64-.28.64-.64s-.28-.64-.64-.64c-.16,0-.3.06-.41.15-.2-.92-.84-1.48-1.36-1.95-.32-.28-.61-.54-.78-.84-.06-.11-.11-.22-.16-.36-.2-.51-.46-1.15-1.77-2.5-.24-.24-1.07-1.02-.47-3.79.34-1.58-.29-2.6-.7-3.43-.3-.61-.51-1.44-.6-1.82,0,0,0-.04-.02-.04s-.02.04-.02.04c-.09.38-.3,1.21-.6,1.82-.4.82-1.04,1.85-.7,3.43.6,2.77-.24,3.54-.47,3.79-1.32,1.35-1.57,1.99-1.77,2.5-.06.14-.1.25-.16.36-.17.3-.47.56-.78.84-.53.47-1.16,1.03-1.36,1.95-.11-.09-.25-.15-.41-.15-.35,0-.64.28-.64.64s.28.64.64.64ZM32,2.16c.13.56.86,1.81.88,2.35.02.59-.46,1.61-.46,1.61l-.24-.42s.39-.57.39-1.09c0-.43-.47-.73-.56-1.23,0-.01-.02-.01-.02,0-.08.5-.55.79-.55,1.23,0,.52.39,1.09.39,1.09l-.24.42s-.47-1.03-.46-1.61c.02-.53.74-1.79.88-2.35Z"/>
</svg>