<?xml version="1.0" encoding="UTF-8"?>
<svg id="Boxed_Black" data-name="Boxed Black" xmlns="http://www.w3.org/2000/svg" xmlns:xlink="http://www.w3.org/1999/xlink" viewBox="0 0 480.45 82.11">
  <defs>
    <style>
      .cls-1 {
        fill: none;
      }

      .cls-2 {
        fill: #fff;
      }

      .cls-3 {
        fill: #2774ae;
      }

      .cls-4 {
        fill: #3185bf;
      }

      .cls-5 {
        clip-path: url(#clippath);
      }
    </style>
    <clipPath id="clippath">
      <rect class="cls-1" x="417.92" y="-4.24" width="77.67" height="90.74"/>
    </clipPath>
  </defs>
  <g>
    <path d="M106.03,39.45l-5.77-10.64h3.83l2.62,5.14c.53,1.04,1.14,2.47,1.14,2.47h.05s.65-1.43,1.16-2.47l2.57-5.14h3.69l-5.77,10.64v6.69h-3.52v-6.69h0Z"/>
    <path d="M121.9,44.76h-.05c-.63.95-1.53,1.67-3.66,1.67-2.55,0-4.34-1.33-4.34-3.81,0-2.74,2.23-3.61,5-4,2.06-.29,3.01-.46,3.01-1.41,0-.9-.7-1.48-2.08-1.48-1.55,0-2.3.56-2.4,1.75h-2.93c.1-2.18,1.72-4.1,5.36-4.1s5.24,1.67,5.24,4.58v6.33c0,.95.15,1.5.44,1.72v.12h-3.18c-.19-.24-.32-.82-.39-1.38h-.02ZM121.93,41.75v-1.87c-.58.34-1.48.53-2.3.73-1.72.39-2.57.78-2.57,1.94s.78,1.58,1.94,1.58c1.89,0,2.93-1.16,2.93-2.38h0Z"/>
    <path d="M130.26,35.69h.07c.75-1.41,1.6-2.13,3.06-2.13.36,0,.58.02.78.1v2.88h-.07c-2.16-.22-3.71.92-3.71,3.54v6.06h-3.3v-12.44h3.18v1.99h0Z"/>
    <path d="M134.68,42.12h3.06c.22,1.43,1.24,2.06,2.72,2.06s2.28-.56,2.28-1.43c0-1.19-1.58-1.31-3.27-1.65-2.23-.44-4.41-1.04-4.41-3.76s2.23-3.98,5.07-3.98c3.27,0,5.09,1.62,5.33,4.12h-2.98c-.15-1.33-.99-1.82-2.4-1.82-1.29,0-2.13.49-2.13,1.38,0,1.07,1.65,1.16,3.42,1.53,2.09.44,4.39,1.02,4.39,3.93,0,2.5-2.13,4-5.24,4-3.61,0-5.62-1.75-5.82-4.39h-.02Z"/>
    <path d="M150.54,35.33h.07c.9-1.31,1.92-1.96,3.61-1.96,2.57,0,4.29,1.94,4.29,4.66v8.12h-3.3v-7.64c0-1.33-.78-2.28-2.16-2.28-1.45,0-2.52,1.16-2.52,2.86v7.06h-3.3v-17.34h3.3v6.52h.01Z"/>
    <path d="M167.96,44.76h-.05c-.63.95-1.53,1.67-3.66,1.67-2.55,0-4.34-1.33-4.34-3.81,0-2.74,2.23-3.61,5-4,2.06-.29,3.01-.46,3.01-1.41,0-.9-.7-1.48-2.08-1.48-1.55,0-2.3.56-2.4,1.75h-2.93c.1-2.18,1.72-4.1,5.36-4.1s5.24,1.67,5.24,4.58v6.33c0,.95.15,1.5.44,1.72v.12h-3.18c-.19-.24-.32-.82-.39-1.38h-.02ZM167.98,41.75v-1.87c-.58.34-1.48.53-2.3.73-1.72.39-2.57.78-2.57,1.94s.78,1.58,1.94,1.58c1.89,0,2.93-1.16,2.93-2.38h0Z"/>
    <path d="M172.04,33.7h1.72v-3.88h3.22v3.88h2.13v2.18h-2.13v6.59c0,.92.51,1.24,1.24,1.24.41,0,.97-.02.97-.02v2.42s-.75.05-2.06.05c-1.6,0-3.37-.63-3.37-2.98v-7.3h-1.72v-2.18h0Z"/>
    <path d="M179.7,39.91c0-3.69,2.5-6.55,6.13-6.55,4,0,6.13,3.05,6.13,7.49h-9.02c.24,1.92,1.31,3.1,3.18,3.1,1.29,0,2.04-.58,2.4-1.53h3.25c-.46,2.21-2.42,4.07-5.62,4.07-4.12,0-6.45-2.88-6.45-6.59h0ZM182.99,38.58h5.53c-.1-1.58-1.14-2.67-2.64-2.67-1.75,0-2.59,1.04-2.89,2.67Z"/>
    <path d="M196.63,35.69h.07c.75-1.41,1.6-2.13,3.05-2.13.36,0,.58.02.78.1v2.88h-.07c-2.16-.22-3.71.92-3.71,3.54v6.06h-3.3v-12.44h3.18v1.99h0Z"/>
    <path d="M205.55,37.54c0-5.14,3.2-9.07,8.32-9.07,4.27,0,6.79,2.55,7.15,5.84h-3.49c-.32-1.75-1.62-2.89-3.66-2.89-3.2,0-4.73,2.67-4.73,6.11s1.84,6.09,4.75,6.09c2.06,0,3.52-1.24,3.73-3.05h3.44c-.1,1.53-.75,3.01-1.92,4.1-1.19,1.12-2.86,1.84-5.26,1.84-4.87,0-8.34-3.76-8.34-8.97h.01Z"/>
    <path d="M221.99,39.91c0-3.69,2.5-6.55,6.13-6.55,4,0,6.13,3.05,6.13,7.49h-9.02c.24,1.92,1.31,3.1,3.18,3.1,1.29,0,2.04-.58,2.4-1.53h3.25c-.46,2.21-2.42,4.07-5.62,4.07-4.12,0-6.45-2.88-6.45-6.59h0ZM225.29,38.58h5.53c-.1-1.58-1.14-2.67-2.64-2.67-1.75,0-2.59,1.04-2.89,2.67Z"/>
    <path d="M238.97,35.4h.07c.85-1.33,1.99-2.04,3.69-2.04,2.57,0,4.29,1.94,4.29,4.66v8.12h-3.3v-7.64c0-1.33-.78-2.28-2.16-2.28-1.45,0-2.52,1.16-2.52,2.86v7.06h-3.3v-12.44h3.22v1.7h0Z"/>
    <path d="M247.93,33.7h1.72v-3.88h3.22v3.88h2.13v2.18h-2.13v6.59c0,.92.51,1.24,1.24,1.24.41,0,.97-.02.97-.02v2.42s-.75.05-2.06.05c-1.6,0-3.37-.63-3.37-2.98v-7.3h-1.72v-2.18Z"/>
    <path d="M255.58,39.91c0-3.69,2.5-6.55,6.13-6.55,4,0,6.13,3.05,6.13,7.49h-9.02c.24,1.92,1.31,3.1,3.18,3.1,1.29,0,2.04-.58,2.4-1.53h3.25c-.46,2.21-2.42,4.07-5.62,4.07-4.12,0-6.45-2.88-6.45-6.59h0ZM258.88,38.58h5.53c-.1-1.58-1.14-2.67-2.64-2.67-1.75,0-2.59,1.04-2.89,2.67h0Z"/>
    <path d="M272.51,35.69h.07c.75-1.41,1.6-2.13,3.05-2.13.36,0,.58.02.78.1v2.88h-.07c-2.16-.22-3.71.92-3.71,3.54v6.06h-3.3v-12.44h3.18s0,1.99,0,1.99Z"/>
    <path d="M281.19,33.7h1.7v-1.12c0-3.03,2.35-4.1,5.53-3.76v2.55c-1.55-.07-2.23.12-2.23,1.41v.92h2.23v2.28h-2.23v10.16h-3.3v-10.16h-1.7v-2.28Z"/>
    <path d="M288.73,39.94c0-3.71,2.64-6.57,6.5-6.57s6.5,2.86,6.5,6.57-2.64,6.57-6.5,6.57-6.5-2.86-6.5-6.57ZM298.38,39.94c0-2.42-1.14-4.07-3.15-4.07s-3.15,1.65-3.15,4.07,1.12,4.05,3.15,4.05,3.15-1.62,3.15-4.05Z"/>
    <path d="M306.38,35.69h.07c.75-1.41,1.6-2.13,3.06-2.13.36,0,.58.02.78.1v2.88h-.07c-2.16-.22-3.71.92-3.71,3.54v6.06h-3.3v-12.44h3.18v1.99h-.01Z"/>
    <path d="M315.07,33.7h1.72v-3.88h3.22v3.88h2.13v2.18h-2.13v6.59c0,.92.51,1.24,1.24,1.24.41,0,.97-.02.97-.02v2.42s-.75.05-2.06.05c-1.6,0-3.37-.63-3.37-2.98v-7.3h-1.72v-2.18Z"/>
    <path d="M326.95,35.33h.07c.9-1.31,1.92-1.96,3.61-1.96,2.57,0,4.29,1.94,4.29,4.66v8.12h-3.3v-7.64c0-1.33-.78-2.28-2.16-2.28-1.45,0-2.52,1.16-2.52,2.86v7.06h-3.3v-17.34h3.3v6.52h0Z"/>
    <path d="M336.32,39.91c0-3.69,2.5-6.55,6.13-6.55,4,0,6.13,3.05,6.13,7.49h-9.02c.24,1.92,1.31,3.1,3.18,3.1,1.29,0,2.04-.58,2.4-1.53h3.25c-.46,2.21-2.42,4.07-5.62,4.07-4.12,0-6.45-2.88-6.45-6.59h0ZM339.62,38.58h5.53c-.1-1.58-1.14-2.67-2.64-2.67-1.75,0-2.59,1.04-2.89,2.67h0Z"/>
    <path d="M353.69,40.78h3.44c.24,2.08,1.43,2.91,3.9,2.91,1.79,0,3.37-.63,3.37-2.23,0-1.7-1.65-2.04-4.29-2.64-3.1-.7-5.94-1.53-5.94-5.14,0-3.42,2.79-5.19,6.64-5.19s6.43,1.92,6.69,5.41h-3.37c-.19-1.75-1.55-2.62-3.35-2.62-1.89,0-3.13.8-3.13,2.04,0,1.41,1.21,1.82,3.78,2.38,3.56.78,6.47,1.62,6.47,5.36,0,3.52-2.84,5.48-6.74,5.48-4.7,0-7.37-2.08-7.49-5.75h.02Z"/>
    <path d="M368.71,33.7h1.72v-3.88h3.22v3.88h2.13v2.18h-2.13v6.59c0,.92.51,1.24,1.24,1.24.41,0,.97-.02.97-.02v2.42s-.75.05-2.06.05c-1.6,0-3.37-.63-3.37-2.98v-7.3h-1.72v-2.18Z"/>
    <path d="M385.01,46.14v-1.46h-.07c-.85,1.14-1.82,1.79-3.56,1.79-2.76,0-4.32-1.77-4.32-4.49v-8.29h3.27v7.73c0,1.46.65,2.25,2.06,2.25,1.55,0,2.5-1.16,2.5-2.81v-7.18h3.3v12.44h-3.18v.02Z"/>
    <path d="M389.75,39.94c0-3.88,2.21-6.57,5.31-6.57,1.75,0,2.84.8,3.52,1.84h.07v-6.4h3.3v17.34h-3.18v-1.62h-.05c-.73,1.19-1.96,1.99-3.71,1.99-3.13,0-5.26-2.55-5.26-6.57h0ZM398.72,40.01c0-2.38-.78-3.98-2.89-3.98-1.82,0-2.74,1.6-2.74,3.9s.95,3.81,2.64,3.81c1.96,0,2.98-1.46,2.98-3.73h0Z"/>
    <path d="M404.17,47.62h1.16c1.31,0,1.84-.68,1.84-1.7,0-.68-.24-1.48-.95-3.37l-3.35-8.85h3.47l1.84,5.6c.39,1.14.8,2.72.8,2.72h.05s.34-1.58.73-2.72l1.75-5.6h3.32l-4.34,12.75c-.95,2.76-1.87,3.76-4.39,3.76h-1.94v-2.59h.01Z"/>
    <path d="M100.62,62.69c0-3.71,2.64-6.57,6.5-6.57s6.5,2.86,6.5,6.57-2.64,6.57-6.5,6.57-6.5-2.86-6.5-6.57ZM110.27,62.69c0-2.42-1.14-4.07-3.15-4.07s-3.15,1.65-3.15,4.07,1.12,4.05,3.15,4.05,3.15-1.62,3.15-4.05Z"/>
    <path d="M113.95,56.45h1.7v-1.12c0-3.03,2.35-4.1,5.53-3.76v2.55c-1.55-.07-2.23.12-2.23,1.41v.92h2.23v2.28h-2.23v10.16h-3.3v-10.16h-1.7v-2.28Z"/>
    <path d="M127.04,51.56h3.52v17.34h-3.52v-17.34Z"/>
    <path d="M136.11,58.44h.07c.75-1.41,1.6-2.13,3.06-2.13.36,0,.58.02.78.1v2.88h-.07c-2.16-.22-3.71.92-3.71,3.54v6.06h-3.3v-12.44h3.18v1.99h0Z"/>
    <path d="M148.53,67.51h-.05c-.63.95-1.53,1.67-3.66,1.67-2.55,0-4.34-1.33-4.34-3.81,0-2.74,2.23-3.61,5-4,2.06-.29,3.01-.46,3.01-1.41,0-.9-.7-1.48-2.08-1.48-1.55,0-2.3.56-2.4,1.75h-2.93c.1-2.18,1.72-4.1,5.36-4.1s5.24,1.67,5.24,4.58v6.33c0,.95.15,1.5.44,1.72v.12h-3.18c-.19-.24-.32-.82-.39-1.38h-.02ZM148.56,64.5v-1.87c-.58.34-1.48.53-2.3.73-1.72.39-2.57.78-2.57,1.94s.78,1.58,1.94,1.58c1.89,0,2.93-1.16,2.93-2.38h0Z"/>
    <path d="M156.94,58.15h.07c.85-1.33,1.99-2.04,3.69-2.04,2.57,0,4.29,1.94,4.29,4.66v8.12h-3.3v-7.64c0-1.33-.78-2.28-2.16-2.28-1.45,0-2.52,1.16-2.52,2.86v7.06h-3.3v-12.44h3.22v1.7h.01Z"/>
    <path d="M167.03,51.56h3.3v2.96h-3.3v-2.96ZM167.03,56.45h3.3v12.44h-3.3v-12.44Z"/>
    <path d="M179.86,67.51h-.05c-.63.95-1.53,1.67-3.66,1.67-2.55,0-4.34-1.33-4.34-3.81,0-2.74,2.23-3.61,5-4,2.06-.29,3.01-.46,3.01-1.41,0-.9-.7-1.48-2.08-1.48-1.55,0-2.3.56-2.4,1.75h-2.93c.1-2.18,1.72-4.1,5.36-4.1s5.24,1.67,5.24,4.58v6.33c0,.95.15,1.5.44,1.72v.12h-3.18c-.19-.24-.32-.82-.39-1.38h-.02ZM179.89,64.5v-1.87c-.58.34-1.48.53-2.3.73-1.72.39-2.57.78-2.57,1.94s.78,1.58,1.94,1.58c1.89,0,2.93-1.16,2.93-2.38h0Z"/>
    <path d="M188.27,58.15h.07c.85-1.33,1.99-2.04,3.69-2.04,2.57,0,4.29,1.94,4.29,4.66v8.12h-3.3v-7.64c0-1.33-.78-2.28-2.16-2.28-1.45,0-2.52,1.16-2.52,2.86v7.06h-3.3v-12.44h3.22v1.7h.01Z"/>
    <path d="M202.7,51.56h3.52v14.4h8.15v2.93h-11.66v-17.34h0Z"/>
    <path d="M215.6,51.56h3.3v2.96h-3.3v-2.96ZM215.6,56.45h3.3v12.44h-3.3v-12.44Z"/>
    <path d="M220.01,56.45h1.72v-3.88h3.22v3.88h2.13v2.18h-2.13v6.59c0,.92.51,1.24,1.24,1.24.41,0,.97-.02.97-.02v2.42s-.75.05-2.06.05c-1.6,0-3.37-.63-3.37-2.98v-7.3h-1.72v-2.18h0Z"/>
    <path d="M227.66,62.66c0-3.69,2.5-6.55,6.13-6.55,4,0,6.13,3.05,6.13,7.49h-9.02c.24,1.92,1.31,3.1,3.18,3.1,1.29,0,2.04-.58,2.4-1.53h3.25c-.46,2.21-2.42,4.07-5.62,4.07-4.12,0-6.45-2.88-6.45-6.59h0ZM230.96,61.33h5.53c-.1-1.58-1.14-2.67-2.64-2.67-1.75,0-2.59,1.04-2.89,2.67h0Z"/>
    <path d="M244.59,58.44h.07c.75-1.41,1.6-2.13,3.06-2.13.36,0,.58.02.78.1v2.88h-.07c-2.16-.22-3.71.92-3.71,3.54v6.06h-3.3v-12.44h3.18v1.99h-.01Z"/>
    <path d="M257.01,67.51h-.05c-.63.95-1.53,1.67-3.66,1.67-2.55,0-4.34-1.33-4.34-3.81,0-2.74,2.23-3.61,5-4,2.06-.29,3.01-.46,3.01-1.41,0-.9-.7-1.48-2.08-1.48-1.55,0-2.3.56-2.4,1.75h-2.93c.1-2.18,1.72-4.1,5.36-4.1s5.24,1.67,5.24,4.58v6.33c0,.95.15,1.5.44,1.72v.12h-3.18c-.19-.24-.32-.82-.39-1.38h-.02ZM257.04,64.5v-1.87c-.58.34-1.48.53-2.3.73-1.72.39-2.57.78-2.57,1.94s.78,1.58,1.94,1.58c1.89,0,2.93-1.16,2.93-2.38Z"/>
    <path d="M265.37,58.44h.07c.75-1.41,1.6-2.13,3.06-2.13.36,0,.58.02.78.1v2.88h-.07c-2.16-.22-3.71.92-3.71,3.54v6.06h-3.3v-12.44h3.18v1.99h-.01Z"/>
    <path d="M271.15,70.37h1.16c1.31,0,1.84-.68,1.84-1.7,0-.68-.24-1.48-.95-3.37l-3.35-8.85h3.47l1.84,5.6c.39,1.14.8,2.72.8,2.72h.05s.34-1.58.73-2.72l1.75-5.6h3.32l-4.34,12.75c-.95,2.76-1.87,3.76-4.39,3.76h-1.94v-2.59h.01Z"/>
    <path d="M286.38,51.56h13.94v2.96h-5.21v14.38h-3.52v-14.38h-5.21v-2.96h0Z"/>
    <path d="M302.74,58.44h.07c.75-1.41,1.6-2.13,3.05-2.13.36,0,.58.02.78.1v2.88h-.07c-2.16-.22-3.71.92-3.71,3.54v6.06h-3.3v-12.44h3.18v1.99Z"/>
    <path d="M315.16,67.51h-.05c-.63.95-1.53,1.67-3.66,1.67-2.55,0-4.34-1.33-4.34-3.81,0-2.74,2.23-3.61,5-4,2.06-.29,3.01-.46,3.01-1.41,0-.9-.7-1.48-2.08-1.48-1.55,0-2.3.56-2.4,1.75h-2.93c.1-2.18,1.72-4.1,5.36-4.1s5.24,1.67,5.24,4.58v6.33c0,.95.15,1.5.44,1.72v.12h-3.18c-.19-.24-.32-.82-.39-1.38h-.02ZM315.18,64.5v-1.87c-.58.34-1.48.53-2.3.73-1.72.39-2.57.78-2.57,1.94s.78,1.58,1.94,1.58c1.89,0,2.93-1.16,2.93-2.38Z"/>
    <path d="M319.69,62.69c0-3.88,2.21-6.57,5.31-6.57,1.75,0,2.84.8,3.52,1.84h.07v-6.4h3.3v17.34h-3.18v-1.62h-.05c-.73,1.19-1.96,1.99-3.71,1.99-3.13,0-5.26-2.55-5.26-6.57h0ZM328.66,62.76c0-2.38-.78-3.98-2.89-3.98-1.82,0-2.74,1.6-2.74,3.9s.95,3.81,2.64,3.81c1.96,0,2.98-1.46,2.98-3.73h0Z"/>
    <path d="M333.98,51.56h3.3v2.96h-3.3v-2.96ZM333.98,56.45h3.3v12.44h-3.3v-12.44Z"/>
    <path d="M338.38,56.45h1.72v-3.88h3.22v3.88h2.13v2.18h-2.13v6.59c0,.92.51,1.24,1.24,1.24.41,0,.97-.02.97-.02v2.42s-.75.05-2.06.05c-1.6,0-3.37-.63-3.37-2.98v-7.3h-1.72v-2.18Z"/>
    <path d="M347,51.56h3.3v2.96h-3.3v-2.96ZM347,56.45h3.3v12.44h-3.3v-12.44Z"/>
    <path d="M351.74,62.69c0-3.71,2.64-6.57,6.5-6.57s6.5,2.86,6.5,6.57-2.64,6.57-6.5,6.57-6.5-2.86-6.5-6.57ZM361.39,62.69c0-2.42-1.14-4.07-3.15-4.07s-3.15,1.65-3.15,4.07,1.12,4.05,3.15,4.05,3.15-1.62,3.15-4.05Z"/>
    <path d="M369.45,58.15h.07c.85-1.33,1.99-2.04,3.69-2.04,2.57,0,4.29,1.94,4.29,4.66v8.12h-3.3v-7.64c0-1.33-.78-2.28-2.16-2.28-1.45,0-2.52,1.16-2.52,2.86v7.06h-3.3v-12.44h3.22v1.7h0Z"/>
    <path d="M378.77,64.87h3.06c.22,1.43,1.24,2.06,2.72,2.06s2.28-.56,2.28-1.43c0-1.19-1.58-1.31-3.27-1.65-2.23-.44-4.41-1.04-4.41-3.76s2.23-3.98,5.07-3.98c3.27,0,5.09,1.62,5.33,4.12h-2.98c-.15-1.33-.99-1.82-2.4-1.82-1.29,0-2.13.49-2.13,1.38,0,1.07,1.65,1.16,3.42,1.53,2.09.44,4.39,1.02,4.39,3.93,0,2.5-2.13,4-5.24,4-3.61,0-5.62-1.75-5.82-4.39h-.02Z"/>
  </g>
  <g>
    <path d="M100.71,18.6c0-2.84,1.7-5.04,4.58-5.04,2.25,0,3.62,1.3,3.88,3.08h-1.19c-.23-1.2-1.19-2.03-2.71-2.03-2.12,0-3.31,1.71-3.31,3.98s1.31,3.96,3.32,3.96c1.82,0,2.69-1.24,2.81-2.66h1.2c0,.96-.47,2.04-1.16,2.71-.68.66-1.66,1.01-2.89,1.01-2.74,0-4.52-2.09-4.52-5.02h0Z"/>
    <path d="M110.12,19.95c0-2.03,1.3-3.67,3.38-3.67s3.36,1.65,3.36,3.67-1.27,3.67-3.36,3.67-3.38-1.65-3.38-3.67ZM115.74,19.95c0-1.54-.76-2.77-2.24-2.77s-2.25,1.23-2.25,2.77.77,2.75,2.25,2.75,2.24-1.21,2.24-2.75Z"/>
    <path d="M117.97,13.78h1.09v9.66h-1.09v-9.66Z"/>
    <path d="M120.52,13.78h1.09v9.66h-1.09v-9.66Z"/>
    <path d="M122.7,19.95c0-2.03,1.32-3.67,3.31-3.67,2.09,0,3.21,1.62,3.21,3.93h-5.4c.08,1.42.85,2.5,2.25,2.5,1.01,0,1.69-.49,1.93-1.43h1.07c-.32,1.5-1.42,2.35-3,2.35-2.13,0-3.38-1.65-3.38-3.67h0ZM123.85,19.38h4.2c-.07-1.39-.78-2.24-2.04-2.24s-2,.97-2.16,2.24Z"/>
    <path d="M130.12,23.83h1.01c.11.77.84,1.07,1.92,1.07,1.28,0,2-.58,2-1.8v-.99h-.03c-.51.66-1.07,1.08-2.07,1.08-1.81,0-3.05-1.45-3.05-3.46,0-2.17,1.36-3.44,2.98-3.44,1.01,0,1.66.39,2.13,1.05h.03v-.89h1.09v6.6c0,1.84-1.22,2.7-3.07,2.7s-2.84-.73-2.96-1.93h.02ZM135.13,19.68c0-1.53-.65-2.47-2.13-2.47-1.31,0-1.97,1.03-1.97,2.54s.69,2.53,1.98,2.53c1.61,0,2.12-1.12,2.12-2.59h0Z"/>
    <path d="M137.22,19.95c0-2.03,1.32-3.67,3.31-3.67,2.09,0,3.21,1.62,3.21,3.93h-5.4c.08,1.42.85,2.5,2.25,2.5,1.01,0,1.69-.49,1.93-1.43h1.07c-.32,1.5-1.42,2.35-3,2.35-2.13,0-3.38-1.65-3.38-3.67h0ZM138.37,19.38h4.2c-.07-1.39-.78-2.24-2.04-2.24s-2,.97-2.16,2.24Z"/>
    <path d="M149.4,13.25h.94v11.78h-.94v-11.78Z"/>
    <path d="M156.58,13.78h1.22v4.11h5.16v-4.11h1.22v9.66h-1.22v-4.56h-5.16v4.56h-1.22v-9.66Z"/>
    <path d="M170.3,23.43v-.96h-.03c-.5.68-1.09,1.12-2.11,1.12-1.43,0-2.35-.86-2.35-2.31v-4.83h1.09v4.81c0,.9.58,1.43,1.57,1.43,1.11,0,1.82-.84,1.82-1.94v-4.29h1.09v6.98h-1.09,0Z"/>
    <path d="M172.84,16.45h1.09v1h.03c.43-.67,1.17-1.16,2.05-1.16s1.53.43,1.82,1.24h.03c.45-.8,1.28-1.24,2.13-1.24,1.24,0,2.12.8,2.12,2.24v4.9h-1.09v-4.85c0-.86-.58-1.38-1.28-1.38-.9,0-1.71.78-1.71,1.88v4.35h-1.09v-4.85c0-.86-.49-1.38-1.2-1.38-.85,0-1.8.78-1.8,1.88v4.35h-1.09v-6.98h-.01Z"/>
    <path d="M187.84,22.46h0c-.42.54-1.13,1.11-2.32,1.11-1.32,0-2.36-.62-2.36-1.94,0-1.65,1.3-1.99,3.04-2.25.99-.15,1.67-.24,1.67-1s-.57-1.23-1.57-1.23c-1.13,0-1.7.49-1.74,1.54h-1.05c.04-1.35.93-2.36,2.78-2.36,1.49,0,2.58.55,2.58,2.21v3.32c0,.57.13.88.74.74h.04v.8c-.13.05-.31.11-.59.11-.72,0-1.09-.32-1.2-1.04h0ZM187.87,20.85v-1.19c-.37.23-1,.41-1.59.51-1.09.2-1.97.39-1.97,1.42,0,.93.73,1.13,1.45,1.13,1.46,0,2.12-1.07,2.12-1.88h0Z"/>
    <path d="M191.54,17.37h.03c.5-.66,1.2-1.08,2.21-1.08,1.46,0,2.35.8,2.35,2.24v4.9h-1.09v-4.81c0-.9-.59-1.42-1.58-1.42-1.11,0-1.92.78-1.92,1.93v4.29h-1.09v-6.98h1.09v.92h0Z"/>
    <path d="M197.55,13.78h1.09v1.35h-1.09v-1.35ZM197.55,16.45h1.09v6.98h-1.09v-6.98Z"/>
    <path d="M199.48,16.45h1.01v-2.2h1.09v2.2h1.35v.89h-1.35v4.54c0,.49.26.65.7.65.22,0,.46-.05.58-.09h.04v.95c-.26.05-.55.09-.88.09-.89,0-1.54-.36-1.54-1.35v-4.78h-1.01v-.89h.01Z"/>
    <path d="M203.89,13.78h1.09v1.35h-1.09v-1.35ZM203.89,16.45h1.09v6.98h-1.09v-6.98Z"/>
    <path d="M206.05,19.95c0-2.03,1.32-3.67,3.31-3.67,2.09,0,3.21,1.62,3.21,3.93h-5.4c.08,1.42.85,2.5,2.26,2.5,1.01,0,1.69-.49,1.93-1.43h1.07c-.32,1.5-1.42,2.35-3,2.35-2.13,0-3.38-1.65-3.38-3.67h0ZM207.2,19.38h4.2c-.07-1.39-.78-2.24-2.04-2.24s-2,.97-2.16,2.24Z"/>
    <path d="M213.15,21.16h1.12c.15,1.21.96,1.55,2,1.55,1.15,0,1.62-.5,1.62-1.15,0-.78-.54-.99-1.82-1.26-1.38-.28-2.61-.57-2.61-2.09,0-1.16.89-1.92,2.51-1.92,1.73,0,2.58.82,2.74,2.19h-1.12c-.11-.92-.61-1.32-1.65-1.32s-1.4.45-1.4,1c0,.76.67.91,1.88,1.15,1.4.28,2.58.59,2.58,2.2,0,1.41-1.15,2.12-2.75,2.12-1.92,0-2.98-.9-3.09-2.47h-.01Z"/>
  </g>
  <g id="_logo_" data-name=" logo ">
    <rect class="cls-3" y="8.37" width="92" height="44"/>
    <g>
      <path class="cls-2" d="M14.71,34.6c-.09-.7-.05-1.72-.05-2.22l1.04-11.99h3.85l-1.06,12.1c-.23,2.62.78,4.49,3.34,4.49s4.01-1.9,4.23-4.22l1.09-12.36h3.85l-1.06,12.21c-.43,4.7-3.49,8.22-8.43,8.22-3.86,0-6.34-2.54-6.81-6.22"/>
      <path class="cls-2" d="M31.9,30.54c.5-5.76,4.31-10.53,10.89-10.53,1.73,0,3.4.4,5.06,1.49l-.44,4.76c-1.52-2.04-3.32-2.37-4.98-2.37-4.09,0-6.34,2.9-6.66,6.57-.31,3.57,1.5,6.48,5.47,6.48,1.73,0,3.57-.51,5.49-2.47l-.43,4.88c-1.87,1.04-3.61,1.51-5.37,1.51-6.51,0-9.49-4.93-9.03-10.32"/>
      <path class="cls-2" d="M50.93,20.39h3.84l-1.4,16.29h5.5c.39,0,1.7-.02,2.05-.04-.02.2-.35,3.76-.35,3.76h-11.39l1.74-20.01h.01Z"/>
      <path class="cls-2" d="M70.93,27.86c.13-.28.24-.64.28-.84h.06c.02.25.07.55.15.85.21.91,1.71,5.98,1.71,5.98h-4.85s2.6-5.85,2.65-5.98M71.92,19.47h-.27l-10.52,20.93h4.08l1.48-3.17h7.41l.92,3.17h4.07l-7.18-20.93h0Z"/>
    </g>
  </g>
  <g class="cls-5">
    <path class="cls-4" d="M456.76,68.16c.21,0,.38-.38.38-.84s-.17-.84-.38-.84-.38.38-.38.84.17.84.38.84"/>
    <path class="cls-4" d="M456.76,33.44c-.36,0-.97.18-.97.83,0,.45.85,1.38.97,1.51h0s0,0,0,0c.12-.13.97-1.06.97-1.51,0-.65-.6-.83-.97-.83M456.76,35.09h0s0,0,0,0c-.06-.07-.47-.52-.47-.74,0-.32.3-.41.48-.41.18,0,.48.09.48.41,0,.22-.42.68-.47.74"/>
    <path class="cls-4" d="M479.26,41.43c-.31,0-.58.13-.77.34-.12-.25-.19-.56-.16-.91.04-.49.09-1.21.21-2.03.24-1.5-.09-4.29-1.4-6.84-1.27-2.48-3.52-5.3-7.28-5.56-2.76-2.82-5.88-2.14-8.8-3.22-.3-.11-.56-.25-.78-.4.59-.96.96-1.89,1.04-2.18.32-1.06,1.27-1.24,2.1-.23.09.11.26.04.25-.1-.09-1.98-2.02-2.55-2.79-3.93-.45-.8-.28-1.4-2.41-3.58-1.33-1.37-1.56-3.51-1.6-4.27.09-.05.16-.15.16-.26,0-.16-.13-.3-.3-.3s-.3.13-.3.3c0,.11.07.21.16.26-.04.76-.26,2.9-1.6,4.27-2.13,2.19-1.96,2.78-2.41,3.58-.77,1.38-2.71,1.94-2.79,3.93,0,.14.17.21.25.1.83-1.01,1.78-.83,2.1.23.09.28.45,1.22,1.04,2.18-.22.15-.48.28-.78.4-2.91,1.08-6.04.4-8.8,3.22-3.75.26-6,3.08-7.28,5.56-1.31,2.55-1.64,5.34-1.4,6.84.13.81.17,1.54.21,2.03.03.35-.04.65-.16.91-.25-.27-.63-.41-1.04-.31-.37.09-.67.4-.76.77-.16.69.36,1.3,1.02,1.3.25,0,.48-.09.66-.24.93-.64.74-2.36.67-3.79-.12-2.46.12-4.73,1.99-7.68,1.78-2.81,4.36-4.01,5.34-4.38-.17.3-.33.63-.46,1-4.49,2.18-5.71,7.88-5.9,9.41-.18,1.53-.08,4.77-.41,5.57-.34.82-1.37.68-1.9.69-.19,0-.25.25-.09.35.35.22,1,.52,1.94.51,1.12-.01,3.04-.94,4.13-.13.97.71.96,2.17.94,2.49-.15-.03-.3-.05-.46-.05-1.18,0-2.13.88-2.13,1.98,0,.93.69,1.98,2.13,1.98,1.18,0,2.14-.99,2.13-2.45-.01-4.15-1.81-5.54-1.81-8.24,0-.73.34-2.38,1.42-4,1.08-1.62,2.73-3.98,2.81-5.19.11-1.75-.88-2.58-.88-2.58,1.37-2.23,3.15-3.64,7.86-4.37.8-.12,1.3-.46,1.59-.73.27.34.57.65.89.91-.62.82-3.33,3.54-5.69,3.15-.15-.02-.28.1-.27.25.06.88.07,3.41-1.55,5.13-1.99,2.11-3.74,3.59-3.74,6.78s.59,5.51.64,6.18c.1,1.3-.11,1.36-.22,1.65-.07.18.16.41.35.18.1-.12.39-.62.42-2.04.04-1.7-.1-4.28.81-5.45,0,0,.44,1.42,1.4.27,0,0,1.28,1.5,2.33,1.5s1.99-.7,2.46-.83c.38-.11.73-.1.91-.09.05,0,.08.06.05.1-.14.22-.53.76-1.16.87-.79.14-2.28.3-3.09.89-.81.59-1.32,1.78-1.32,1.78,0,0-.23-.41-.77-.41s-.83.46-.83.9c0,.47.4.77.98.77s.88-.7,1.43-1.34c.56-.64,1.26-1.55,2.61-1.84,1.35-.29,2.2-.65,2.92-1.7l.26.25s-1.58,1.44-1.88,2.33c0,0-1.38-.29-2.13.3-.74.59-.84,1.52-.84,1.52,0,0-2.94-.12-2.25,4.2-1.62.93-2.78,2.07-2.78,5.22,0,3.6,2.85,6.21,6.71,6.59,0,0,1.43,1.12,3.23,1.13,0,.04,0,.07.01.11.09.28.36,1.01.73,1.57-.27.16-.72.32-1.41.32-.78,0-1.38-.76-1.96-1.49-.09-.11-.18-.22-.26-.33-.22-.27-.54-.42-.88-.42s-.68.16-.9.44c-.22.27-.29.63-.21.97.17.74.63,1.99,1.33,3.05.81,1.22,1.8,1.98,2.89,2.22.23.57.68,1.55,1.51,2.8.13.19.24.39.34.59.35.85.46,1.1.69,2.34.18,1.01.34,2.05.69,3.04.17.49.2,1.3.2,1.92-.42.12-.72.51-.72.96,0,.56.45,1.01,1.01,1.01s1.01-.45,1.01-1.01c0-.46-.31-.84-.72-.96,0-.63.01-1.44.18-1.92.35-.99.5-2.04.68-3.04.23-1.24.35-1.49.71-2.34.1-.2.21-.4.34-.59.83-1.25,1.28-2.23,1.51-2.8,1.09-.23,2.08-1,2.89-2.22.7-1.06,1.15-2.3,1.33-3.05.08-.34,0-.7-.21-.97-.22-.27-.55-.44-.9-.44s-.66.15-.88.42c-.08.1-.17.21-.26.33-.58.73-1.18,1.49-1.96,1.49-.69,0-1.13-.16-1.41-.32.36-.56.64-1.29.73-1.57.01-.04.01-.08.01-.11,1.79-.02,3.23-1.13,3.23-1.13,3.86-.38,6.71-2.99,6.71-6.59,0-3.15-1.16-4.28-2.78-5.22.69-4.32-2.25-4.2-2.25-4.2,0,0-.1-.93-.84-1.52-.74-.59-2.13-.3-2.13-.3-.3-.89-1.88-2.33-1.88-2.33l.26-.25c.72,1.05,1.57,1.42,2.92,1.7,1.35.29,2.06,1.2,2.61,1.84.56.64.86,1.34,1.43,1.34s.98-.3.98-.77-.29-.9-.83-.9-.77.41-.77.41c0,0-.51-1.19-1.32-1.78-.81-.59-2.29-.76-3.09-.89-.63-.11-1.02-.64-1.16-.87-.03-.04,0-.1.05-.1.17-.01.53-.01.91.09.47.13,1.41.83,2.46.83s2.33-1.5,2.33-1.5c.96,1.15,1.4-.27,1.4-.27.91,1.16.77,3.75.81,5.45.03,1.41.32,1.91.42,2.04.18.23.42,0,.35-.18-.11-.28-.32-.35-.22-1.65.05-.67.64-2.99.64-6.18s-1.75-4.67-3.74-6.78c-1.62-1.72-1.61-4.25-1.55-5.13.01-.15-.12-.27-.27-.25-2.35.39-5.06-2.33-5.69-3.15.33-.26.62-.57.89-.91.29.27.79.6,1.59.73,4.72.73,6.49,2.14,7.86,4.37,0,0-1,.82-.88,2.58.08,1.21,1.73,3.56,2.81,5.19,1.08,1.62,1.42,3.27,1.42,4,0,2.71-1.8,4.1-1.81,8.24,0,1.45.95,2.45,2.13,2.45,1.44,0,2.13-1.05,2.13-1.98,0-1.09-.95-1.98-2.13-1.98-.16,0-.31.02-.46.05-.02-.32-.03-1.77.94-2.49,1.1-.8,3.01.12,4.13.13.94.01,1.59-.28,1.94-.51.16-.1.1-.35-.09-.35-.53-.01-1.56.13-1.9-.69-.33-.8-.23-4.04-.41-5.57-.18-1.53-1.41-7.23-5.9-9.41-.13-.37-.29-.7-.46-1,.98.37,3.55,1.57,5.34,4.38,1.87,2.95,2.11,5.22,1.99,7.68-.07,1.43-.26,3.15.67,3.79.24.2.57.3.92.21.38-.09.69-.4.77-.78.15-.69-.37-1.29-1.03-1.29M452.56,37.91c-.91-1.67-2.74-2.2-2.74-2.2,0,0,1.45-1.52,1.31-5.96,0,0,1.73-.75,2.61-2.3.59-1.05,1.24-1.97,1.6-2.45,1.06,1.05,1.23,2.21.86,2.84-.42.71-1.44.91-1.71,1.06-.27.15-1,.54-.99,1.45,0,0-2.92.59-1.06,3.6,0,0-.4,1.7,1.26,3.11,1.11.94,1.85,1.7,2.22,2.1.2.22.19.56-.03.75-.04.04-.09.07-.14.1-.63.38-1.04.6-1.22.77,0,0-.66-.45-1.98-2.86M457.03,44.34s0,0-.01,0c-.03,0-.05-.01-.08-.02-.06-.01-.12-.02-.19-.02h0c-.06,0-.13,0-.19.02-.03,0-.05,0-.08.02,0,0,0,0-.01,0-.32-.99-.94-2.03-1.35-2.69.87-.58,1.16-.76,1.63-.76s.76.19,1.63.76c-.42.65-1.03,1.7-1.35,2.69M457.37,45.46c0,.34-.28.62-.62.62-.34,0-.62-.28-.62-.62s.28-.62.62-.62c.34,0,.62.28.62.62M455.27,35.1c-.39-.51-.77-1.18-.77-1.68,0-.4.23-.87.84-.87.81,0,1.04.52,1.41.52s.61-.52,1.42-.52c.61,0,.84.47.84.87,0,.5-.38,1.17-.77,1.68-.44.57-1.2,1.58-1.49,1.95-.28-.37-1.05-1.38-1.49-1.95M456.71,32.12c-.31,0-.56-.55-.56-1.22s.25-1.22.56-1.22.56.55.56,1.22-.25,1.22-.56,1.22M456.76,26.49c-.09-.66-.31-1.44-.81-2.11.19-.2.48-.45.81-.6.33.16.61.41.81.6-.49.67-.71,1.45-.81,2.11M457.13,21.92s-.23-.45-.38-.45-.36.42-.38.45c-.11.21-.53.77-.99,1.03-.12.07-.27-.04-.24-.17.08-.38.24-1.04.54-1.42.32-.42.7-.71,1.08-.71s.76.29,1.07.71c.29.39.46,1.05.54,1.42.03.14-.12.24-.24.17-.46-.26-.89-.82-.99-1.03M451.65,60.77c-1.94-1.38-1.41-2.86-1.06-3.11,1.08-.8,2.63,1.23,3.23,2.07.64.89,1.47,1.61,1.9,1.97.11.09.05.26-.09.26-.75.02-2.43-.09-3.99-1.19M459.27,63.25c-.11.35-.33.87-.74,1.35.25.25.82.63,1.94.63.97,0,1.66-.87,2.26-1.64.09-.11.17-.22.26-.32.14-.17.35-.27.58-.27s.45.11.6.29c.14.18.19.41.14.64-.17.71-.6,1.9-1.27,2.92-.8,1.21-1.79,1.93-2.85,2.09-.19.51-.63,1.54-1.55,2.93-.57.87-.86,1.8-1,2.56h0s-.01.08-.03.19c0,.03-.01.07-.02.1-.09.56-.32,1.86-.61,2.97,0,0-.04.19-.21.19s-.21-.19-.21-.19c-.29-1.11-.51-2.41-.61-2.97,0-.03-.01-.07-.02-.1-.02-.12-.03-.18-.03-.18h0c-.14-.78-.43-1.71-1-2.57-.92-1.39-1.36-2.42-1.55-2.93-1.06-.16-2.05-.88-2.85-2.09-.67-1.01-1.1-2.21-1.27-2.92-.05-.23,0-.46.14-.64.14-.18.37-.29.6-.29s.43.1.58.27c.08.1.17.21.26.32.61.77,1.3,1.64,2.26,1.64,1.12,0,1.69-.39,1.94-.63-.41-.47-.63-.99-.74-1.35l-.16-.42c.17-.01.34-.03.51-.07,0,0,.16,1.06,1,1.8,0,0-.54,1.13-2.55,1.13-1.35,0-2.2-1.3-2.88-2.12-.2-.24-.58-.05-.51.25.29,1.24,1.59,4.59,4.01,4.68,0,0,.35,1.22,1.59,3.11,1.12,1.7,1.22,3.86,1.22,4.55,0,.15.12.27.27.27s.27-.12.27-.27c0-.69.1-2.85,1.22-4.55,1.25-1.89,1.59-3.11,1.59-3.11,2.42-.1,3.72-3.44,4.01-4.68.07-.3-.31-.49-.51-.25-.68.82-1.53,2.12-2.88,2.12-2.01,0-2.55-1.13-2.55-1.13.83-.74,1-1.8,1-1.8.17.04.34.06.51.07l-.16.42ZM456.76,65.61c.16.26.48.71.95.99,0,0-.27.75-.1,1.26,0,0-.88,1.05-.85,1.71h0c.03-.67-.85-1.71-.85-1.71.17-.52-.1-1.26-.1-1.26.47-.28.79-.73.95-.99M456.41,62.98c0-.37.14-.66.3-.66s.3.3.3.66-.14.66-.3.66-.3-.3-.3-.66M461.86,60.77c-1.55,1.1-3.24,1.21-3.99,1.19-.14,0-.2-.17-.09-.26.44-.35,1.26-1.08,1.9-1.97.61-.84,2.15-2.87,3.23-2.07.34.25.88,1.73-1.06,3.11M460.01,45.14c-.09.18-.02.4.16.49.79.39,2.65,1.5,3.49,3.68,1.09,2.81-.84,3.46-.84,3.46.37,2.19-1.53,2.28-2.33,2.12-.14-.03-.25.13-.2.26.48,1.38.2,2.19-.38,2.85-1.47,1.67-2.78,2.69-3.15,2.97-.38-.28-1.69-1.3-3.15-2.97-.57-.66-.85-1.47-.38-2.85.05-.13-.06-.29-.2-.26-.8.16-2.7.07-2.33-2.12,0,0-1.93-.65-.84-3.46.85-2.18,2.7-3.29,3.49-3.68.18-.09.25-.31.16-.49-.29-.56-.63-1.75.87-2.95.95.98,1.32,2.12,1.44,2.6,0,0,0,.01-.01.02,0,.01-.02.03-.02.04-.03.05-.06.1-.08.15,0,.01,0,.02-.01.03-.06.13-.09.28-.09.43,0,.32.13.61.34.82-.07.38-.31,1.04-1.08,1.28-1.1.35-1.13.88-1.23,1.13-.09.24-.64.99-1.77.47-.09-.04-.19.02-.2.12-.04.69.01,2.84,2.25,3.35,0,0,.09,1.2,1.29,1.92,0,0-1.04,1.92,1.56,3.62,2.6-1.7,1.56-3.62,1.56-3.62,1.2-.72,1.29-1.92,1.29-1.92,2.24-.5,2.3-2.66,2.25-3.35,0-.1-.11-.16-.2-.12-1.14.52-1.68-.23-1.77-.47-.09-.25-.13-.79-1.23-1.13-.77-.24-1.01-.9-1.08-1.28.21-.21.34-.5.34-.82,0-.15-.03-.3-.09-.43,0-.01,0-.02-.01-.03-.02-.05-.05-.1-.08-.15,0-.01-.02-.03-.02-.04,0,0,0-.01-.01-.02.12-.48.49-1.62,1.44-2.6,1.5,1.21,1.16,2.4.87,2.95M459.77,27.46c.88,1.55,2.61,2.3,2.61,2.3-.14,4.44,1.31,5.96,1.31,5.96,0,0-1.83.52-2.74,2.2-1.31,2.41-1.98,2.86-1.98,2.86-.18-.17-.59-.38-1.22-.77-.05-.03-.09-.06-.14-.1-.22-.19-.23-.54-.03-.75.37-.4,1.11-1.16,2.22-2.1,1.66-1.41,1.26-3.11,1.26-3.11,1.86-3.01-1.06-3.6-1.06-3.6.01-.91-.72-1.29-.99-1.45-.27-.15-1.29-.35-1.71-1.06-.37-.62-.2-1.79.86-2.84.36.48,1,1.4,1.6,2.45M459.48,21.99c-.62-.95-.64-2.14-1.06-3.04-.37-.8-.97-1.16-1.4-1.32-.1-.04-.18-.06-.26-.06s-.16.02-.26.06c-.43.16-1.02.52-1.4,1.32-.42.9-.44,2.08-1.06,3.04-.56-.74-1.05-1.39-1.45-1.87-.25-.29-.47-.53-.66-.72-.08-.08-.06-.22.05-.27.18-.08.36-.16.55-.22,1.13-.39,1.41-.39,2.19-1.27.47-.53.31-.8,1.36-1.48.3-.2.53-.43.69-.65.16.22.38.45.69.65,1.05.68.9.94,1.36,1.48.78.89,1.05.89,2.19,1.27.19.06.37.14.55.22.11.05.13.19.05.27-.19.19-.42.43-.66.72-.4.48-.89,1.13-1.45,1.87"/>
    <path class="cls-4" d="M461.98,58.62c-.39-.29-.94.44-1.16.74-.23.32-.56.69-.69.85-.08.09-.02.18.11.16.4-.07.8-.24,1.36-.63.7-.5.5-1.02.38-1.11"/>
    <path class="cls-4" d="M452.69,59.36c-.22-.3-.77-1.03-1.16-.74-.12.09-.32.62.38,1.11.56.4.96.56,1.36.63.14.02.19-.06.11-.16-.13-.15-.46-.53-.69-.85"/>
    <path class="cls-4" d="M448.52,21.11c.3,0,.59-.17.74-.47.11-.22.11-.57.16-.83,0-.05.02-.11.03-.16.26-1.04.99-1.69,1.65-2.27.44-.39.86-.76,1.11-1.21.09-.17.16-.33.24-.52.25-.64.57-1.44,2.25-3.16,1.17-1.2,1.4-3.4,1.46-3.89.09-.75.54-1.45.61-1.56.07.11.51.8.61,1.56.06.49.29,2.68,1.46,3.89,1.67,1.72,1.99,2.52,2.24,3.16.08.19.14.35.24.52.25.45.67.82,1.11,1.21.66.59,1.39,1.24,1.65,2.27.01.05.03.1.03.16.05.27.05.62.16.83.15.3.43.47.74.47.46,0,.83-.37.83-.83s-.37-.83-.83-.83c-.21,0-.39.08-.54.2-.27-1.21-1.1-1.95-1.79-2.56-.41-.37-.81-.71-1.03-1.11-.08-.15-.14-.29-.21-.48-.27-.67-.6-1.51-2.33-3.29-.31-.32-1.41-1.34-.62-4.97.45-2.07-.39-3.42-.91-4.5-.39-.81-.67-1.89-.78-2.39,0,0,0-.06-.03-.06s-.03.06-.03.06c-.11.5-.39,1.59-.78,2.39-.53,1.08-1.36,2.43-.91,4.5.79,3.63-.31,4.65-.62,4.97-1.73,1.78-2.06,2.61-2.33,3.29-.07.18-.13.33-.21.48-.22.39-.61.74-1.03,1.11-.69.61-1.52,1.35-1.79,2.56-.15-.12-.33-.2-.54-.2-.46,0-.83.37-.83.83s.37.83.83.83M456.76,1.95c.17.73,1.13,2.38,1.15,3.08.02.77-.6,2.12-.6,2.12l-.32-.55s.51-.75.51-1.43c0-.57-.62-.96-.73-1.61,0-.02-.03-.02-.03,0-.11.65-.73,1.04-.73,1.61,0,.68.51,1.43.51,1.43l-.32.55s-.62-1.35-.6-2.12c.02-.7.98-2.35,1.15-3.08"/>
  </g>
</svg>