<?xml version="1.0" encoding="UTF-8"?>
<svg id="Layer_1" xmlns="http://www.w3.org/2000/svg" version="1.1" viewBox="0 0 73.66 123.61">
  <!-- Generator: Adobe Illustrator 29.8.2, SVG Export Plug-In . SVG Version: 2.1.1 Build 3)  -->
  <defs>
    <style>
      .st0 {
        fill: #3185bf;
      }
    </style>
  </defs>
  <path class="st0" d="M36.83,101.95c.31,0,.57-.56.57-1.25s-.25-1.25-.57-1.25-.57.56-.57,1.25.25,1.25.57,1.25Z"/>
  <path class="st0" d="M36.83,50.28c-.53,0-1.45.27-1.45,1.24,0,.67,1.26,2.05,1.44,2.25h.02c.17-.2,1.44-1.58,1.44-2.25,0-.96-.89-1.24-1.45-1.24ZM36.83,52.75h0c-.09-.1-.7-.77-.7-1.1,0-.47.45-.6.71-.6s.71.13.71.6c0,.33-.62,1-.7,1.1h-.02Z"/>
  <path class="st0" d="M70.32,62.18c-.46,0-.86.2-1.15.51-.18-.38-.28-.83-.24-1.35.06-.73.13-1.81.32-3.02.35-2.24-.13-6.38-2.08-10.18-1.89-3.69-5.24-7.89-10.83-8.27-4.11-4.2-8.76-3.18-13.09-4.79-.45-.17-.83-.37-1.16-.59.88-1.42,1.43-2.82,1.55-3.24.48-1.57,1.9-1.85,3.13-.34.13.16.39.07.38-.14-.13-2.95-3.01-3.79-4.16-5.84-.67-1.2-.42-2.08-3.58-5.33-1.98-2.04-2.32-5.22-2.38-6.35.14-.07.24-.22.24-.39,0-.24-.2-.44-.44-.44s-.44.2-.44.44c0,.17.1.31.23.38-.06,1.13-.39,4.31-2.38,6.36-3.16,3.25-2.91,4.13-3.58,5.33-1.15,2.05-4.03,2.89-4.16,5.84,0,.21.25.31.38.14,1.23-1.51,2.65-1.23,3.13.34.13.42.67,1.82,1.55,3.24-.33.22-.71.42-1.16.59-4.34,1.61-8.98.6-13.09,4.79-5.59.38-8.93,4.58-10.83,8.27-1.95,3.8-2.43,7.94-2.08,10.18.19,1.21.26,2.29.32,3.02.05.52-.06.97-.24,1.35-.37-.4-.94-.61-1.55-.46-.55.14-1,.59-1.12,1.15-.23,1.03.54,1.94,1.53,1.94.38,0,.72-.14.99-.36,1.39-.95,1.1-3.52,1-5.64-.17-3.66.18-7.04,2.96-11.43,2.65-4.19,6.49-5.97,7.94-6.52-.26.45-.49.94-.68,1.48-6.68,3.24-8.5,11.72-8.78,14-.27,2.28-.12,7.1-.61,8.29-.5,1.22-2.03,1.01-2.82,1.03-.28,0-.37.38-.13.53.53.33,1.49.77,2.89.75,1.67-.02,4.52-1.39,6.15-.2,1.45,1.06,1.42,3.23,1.4,3.7-.22-.05-.45-.07-.69-.07-1.75,0-3.17,1.32-3.17,2.94,0,1.38,1.02,2.94,3.17,2.94,1.75,0,3.18-1.48,3.17-3.64-.02-6.17-2.69-8.24-2.69-12.27,0-1.09.51-3.54,2.11-5.95s4.06-5.92,4.18-7.72c.17-2.61-1.32-3.83-1.32-3.83,2.04-3.32,4.68-5.41,11.7-6.5,1.19-.19,1.94-.68,2.37-1.08.4.5.84.97,1.33,1.35-.93,1.22-4.96,5.27-8.46,4.68-.22-.04-.42.15-.4.37.09,1.32.11,5.08-2.3,7.63-2.96,3.14-5.57,5.35-5.57,10.09s.88,8.2.95,9.19c.15,1.93-.16,2.03-.33,2.45-.11.27.25.61.52.27.14-.18.57-.93.62-3.03.06-2.53-.15-6.38,1.2-8.11,0,0,.65,2.11,2.08.4,0,0,1.91,2.23,3.46,2.23s2.96-1.03,3.66-1.23c.56-.16,1.09-.15,1.35-.14.08,0,.12.09.08.16-.21.33-.79,1.13-1.72,1.29-1.18.2-3.39.45-4.59,1.33-1.2.88-1.97,2.64-1.97,2.64,0,0-.34-.61-1.15-.61s-1.23.68-1.23,1.35.6,1.15,1.46,1.15,1.31-1.04,2.13-2c.83-.95,1.88-2.31,3.89-2.73,2.01-.43,3.28-.97,4.34-2.53l.39.37s-2.35,2.14-2.8,3.47c0,0-2.06-.43-3.16.45s-1.25,2.26-1.25,2.26c0,0-4.37-.18-3.35,6.25-2.41,1.39-4.14,3.07-4.14,7.76,0,5.35,4.25,9.24,9.99,9.8,0,0,2.13,1.66,4.8,1.69,0,.06,0,.11.02.17.13.42.54,1.5,1.08,2.34-.41.24-1.07.48-2.09.48-1.16,0-2.05-1.13-2.91-2.22-.13-.17-.26-.33-.39-.48-.32-.39-.8-.62-1.3-.62s-1.02.24-1.34.65-.44.93-.32,1.44c.26,1.11.93,2.96,1.97,4.53,1.2,1.82,2.68,2.95,4.3,3.3.34.85,1.02,2.31,2.25,4.17.19.29.36.58.5.88.53,1.27.69,1.64,1.02,3.49.27,1.5.5,3.04,1.02,4.52.25.73.3,1.94.3,2.86-.62.18-1.08.75-1.08,1.43,0,.83.67,1.5,1.5,1.5s1.5-.67,1.5-1.5c0-.68-.46-1.25-1.08-1.43,0-.93.02-2.14.27-2.86.52-1.48.74-3.04,1.02-4.52.35-1.85.53-2.22,1.05-3.49.15-.3.31-.59.5-.88,1.23-1.86,1.91-3.31,2.25-4.17,1.62-.35,3.1-1.48,4.3-3.3,1.04-1.57,1.71-3.42,1.97-4.53.12-.51,0-1.04-.32-1.44-.32-.41-.82-.65-1.34-.65s-.98.23-1.3.62c-.13.15-.25.32-.39.48-.86,1.09-1.76,2.22-2.91,2.22-1.03,0-1.68-.23-2.09-.48.54-.84.95-1.92,1.08-2.34.02-.06.02-.11.02-.17,2.67-.02,4.8-1.69,4.8-1.69,5.75-.56,9.99-4.45,9.99-9.8,0-4.69-1.73-6.37-4.14-7.76,1.03-6.43-3.35-6.25-3.35-6.25,0,0-.15-1.38-1.26-2.26-1.1-.88-3.16-.45-3.16-.45-.45-1.33-2.8-3.47-2.8-3.47l.39-.37c1.07,1.57,2.33,2.11,4.34,2.53,2.01.43,3.06,1.78,3.89,2.73.83.95,1.28,2,2.13,2s1.46-.45,1.46-1.15-.43-1.35-1.23-1.35-1.15.61-1.15.61c0,0-.76-1.77-1.97-2.64s-3.41-1.13-4.59-1.33c-.93-.16-1.52-.96-1.72-1.29-.04-.07,0-.15.08-.16.26-.01.79-.02,1.35.14.7.2,2.1,1.23,3.66,1.23s3.46-2.23,3.46-2.23c1.43,1.71,2.08-.4,2.08-.4,1.36,1.73,1.15,5.57,1.2,8.11.05,2.1.47,2.85.62,3.03.27.34.63,0,.52-.27-.17-.42-.48-.52-.33-2.45.08-.99.95-4.45.95-9.19s-2.61-6.95-5.57-10.09c-2.41-2.55-2.39-6.32-2.3-7.63.02-.23-.18-.41-.41-.37-3.5.59-7.53-3.46-8.46-4.68.48-.38.93-.85,1.33-1.35.43.4,1.18.9,2.37,1.08,7.02,1.09,9.66,3.18,11.7,6.5,0,0-1.48,1.23-1.32,3.83.11,1.8,2.57,5.3,4.18,7.72,1.6,2.41,2.11,4.86,2.11,5.95,0,4.03-2.67,6.1-2.69,12.27,0,2.16,1.42,3.64,3.17,3.64,2.15,0,3.17-1.56,3.17-2.94,0-1.62-1.42-2.94-3.17-2.94-.24,0-.47.03-.69.07-.02-.47-.05-2.64,1.4-3.7,1.63-1.2,4.49.17,6.15.2,1.4.02,2.36-.42,2.89-.75.24-.15.15-.52-.13-.53-.79-.02-2.32.19-2.82-1.03-.49-1.2-.34-6.02-.61-8.29-.27-2.28-2.1-10.75-8.78-14-.2-.55-.43-1.04-.68-1.48,1.46.55,5.29,2.33,7.94,6.52,2.78,4.39,3.13,7.77,2.96,11.43-.1,2.13-.39,4.69,1,5.64.36.29.84.44,1.37.31.57-.14,1.02-.6,1.15-1.17.22-1.02-.55-1.92-1.53-1.92h0ZM30.58,56.94c-1.36-2.49-4.07-3.27-4.07-3.27,0,0,2.16-2.26,1.96-8.87,0,0,2.58-1.11,3.88-3.42.88-1.57,1.85-2.93,2.38-3.65,1.58,1.56,1.83,3.29,1.29,4.22-.62,1.05-2.14,1.35-2.54,1.58s-1.49.8-1.47,2.15c0,0-4.34.88-1.58,5.35,0,0-.6,2.53,1.88,4.63,1.65,1.4,2.75,2.53,3.3,3.13.3.32.28.83-.04,1.12-.06.05-.13.1-.2.15-.94.57-1.55.89-1.82,1.14,0,0-.98-.67-2.94-4.25h-.03ZM37.24,66.51h-.02s-.08-.02-.12-.02c-.09-.02-.18-.03-.28-.03h0c-.1,0-.19.01-.28.03-.04,0-.08.01-.12.02h-.02c-.48-1.47-1.39-3.03-2.01-4,1.29-.86,1.73-1.14,2.43-1.14s1.14.28,2.43,1.14c-.62.97-1.54,2.53-2.01,4ZM37.75,68.18c0,.51-.41.92-.92.92s-.92-.41-.92-.92.41-.92.92-.92.92.41.92.92ZM34.62,52.76c-.58-.76-1.14-1.75-1.14-2.5,0-.59.35-1.29,1.25-1.29,1.2,0,1.54.77,2.1.77s.91-.77,2.11-.77c.9,0,1.25.7,1.25,1.29,0,.74-.56,1.74-1.14,2.5-.65.85-1.79,2.35-2.21,2.9-.42-.56-1.56-2.05-2.21-2.9h-.01ZM36.76,48.32c-.46,0-.83-.81-.83-1.82s.37-1.82.83-1.82.83.81.83,1.82-.37,1.82-.83,1.82ZM36.83,39.94c-.14-.98-.47-2.14-1.2-3.14.29-.29.71-.66,1.2-.9.49.24.91.61,1.2.9-.73,1-1.06,2.15-1.2,3.14ZM37.39,33.15s-.35-.67-.56-.67-.54.63-.56.67c-.16.32-.78,1.15-1.48,1.53-.18.1-.4-.06-.36-.26.11-.56.36-1.54.8-2.12.47-.62,1.04-1.05,1.6-1.05s1.13.43,1.6,1.05c.44.58.68,1.56.8,2.12.04.2-.18.36-.36.26-.69-.39-1.32-1.21-1.48-1.53ZM29.23,90.95c-2.89-2.06-2.09-4.25-1.58-4.63,1.61-1.19,3.91,1.83,4.81,3.08.96,1.33,2.18,2.4,2.83,2.93.16.13.07.38-.14.39-1.11.03-3.62-.13-5.93-1.77h0ZM40.56,94.65c-.17.53-.49,1.3-1.1,2.01.37.37,1.23.94,2.89.94,1.44,0,2.46-1.29,3.37-2.44.13-.17.26-.33.38-.48.21-.26.53-.41.86-.41s.67.16.89.43c.21.27.29.61.21.95-.25,1.06-.89,2.83-1.89,4.34-1.19,1.8-2.66,2.88-4.24,3.11-.28.75-.94,2.3-2.31,4.36-.85,1.29-1.28,2.67-1.49,3.82h0s-.02.11-.04.29c0,.05-.02.1-.02.15-.14.84-.48,2.77-.9,4.42,0,0-.05.28-.32.28s-.32-.28-.32-.28c-.43-1.65-.76-3.58-.9-4.42,0-.05-.02-.1-.02-.15-.03-.17-.04-.27-.04-.27h0c-.21-1.16-.64-2.54-1.49-3.83-1.36-2.06-2.03-3.61-2.31-4.36-1.58-.23-3.05-1.31-4.24-3.11-1-1.51-1.64-3.28-1.89-4.34-.08-.34,0-.68.21-.95s.54-.43.89-.43.64.15.86.41c.12.15.25.31.38.48.91,1.14,1.93,2.44,3.37,2.44,1.67,0,2.52-.57,2.89-.94-.61-.71-.94-1.48-1.1-2.01l-.24-.63c.25-.02.5-.05.76-.1,0,0,.24,1.58,1.48,2.69,0,0-.8,1.69-3.8,1.69-2.01,0-3.27-1.93-4.28-3.16-.29-.35-.86-.07-.75.38.43,1.84,2.37,6.82,5.97,6.97,0,0,.52,1.82,2.37,4.62,1.67,2.53,1.82,5.74,1.81,6.76,0,.22.18.4.4.4s.4-.18.4-.4c0-1.02.14-4.24,1.81-6.76,1.85-2.8,2.37-4.62,2.37-4.62,3.6-.14,5.54-5.12,5.97-6.97.1-.45-.46-.73-.75-.38-1.01,1.23-2.27,3.16-4.28,3.16-3,0-3.8-1.69-3.8-1.69,1.24-1.11,1.48-2.69,1.48-2.69.26.05.51.08.76.1l-.24.63h-.02ZM36.83,98.16c.23.39.71,1.06,1.41,1.48,0,0-.4,1.11-.15,1.88,0,0-1.31,1.56-1.26,2.55h0c.05-.99-1.26-2.55-1.26-2.55.25-.77-.15-1.88-.15-1.88.7-.42,1.18-1.09,1.41-1.48ZM36.31,94.25c0-.55.2-.99.45-.99s.45.44.45.99-.2.99-.45.99-.45-.44-.45-.99ZM44.43,90.95c-2.31,1.64-4.82,1.8-5.93,1.77-.2,0-.29-.26-.14-.39.65-.53,1.88-1.6,2.83-2.93.9-1.25,3.21-4.27,4.81-3.08.51.38,1.32,2.57-1.58,4.63h.01ZM41.67,67.7c-.14.27-.03.59.23.73,1.18.58,3.94,2.23,5.2,5.47,1.62,4.18-1.25,5.15-1.25,5.15.55,3.26-2.27,3.39-3.46,3.15-.21-.04-.37.19-.3.39.71,2.05.29,3.26-.56,4.24-2.18,2.49-4.13,4.01-4.69,4.42-.56-.42-2.51-1.93-4.69-4.42-.86-.98-1.27-2.19-.56-4.24.07-.2-.09-.43-.3-.39-1.19.24-4.01.11-3.46-3.15,0,0-2.87-.97-1.25-5.15,1.26-3.25,4.02-4.9,5.2-5.47.27-.13.37-.46.23-.73-.43-.83-.94-2.6,1.29-4.4,1.42,1.45,1.97,3.15,2.15,3.87,0,0,0,.02-.02.03,0,.02-.02.04-.04.06-.05.07-.09.15-.12.23,0,.02,0,.03-.02.05-.08.2-.13.42-.13.65,0,.47.19.9.5,1.22-.11.56-.46,1.54-1.61,1.9-1.64.52-1.69,1.31-1.83,1.69-.13.36-.95,1.48-2.64.7-.13-.06-.29.03-.3.18-.06,1.02.02,4.23,3.35,4.98,0,0,.14,1.79,1.92,2.86,0,0-1.55,2.86,2.32,5.39,3.87-2.53,2.32-5.39,2.32-5.39,1.78-1.07,1.92-2.86,1.92-2.86,3.34-.75,3.42-3.96,3.35-4.98,0-.15-.16-.24-.3-.18-1.69.78-2.5-.34-2.64-.7-.14-.37-.19-1.17-1.83-1.69-1.14-.36-1.5-1.34-1.61-1.9.31-.31.5-.74.5-1.22,0-.23-.05-.45-.13-.65,0-.02,0-.03-.02-.05-.04-.08-.08-.15-.12-.23,0-.02-.02-.04-.04-.06,0,0,0-.02-.02-.03.18-.71.73-2.41,2.15-3.87,2.23,1.8,1.73,3.57,1.29,4.4h.02ZM41.32,41.38c1.31,2.31,3.88,3.42,3.88,3.42-.21,6.61,1.96,8.87,1.96,8.87,0,0-2.72.78-4.07,3.27-1.96,3.59-2.94,4.25-2.94,4.25-.28-.25-.88-.57-1.82-1.14-.07-.04-.14-.1-.2-.15-.33-.29-.34-.8-.04-1.12.55-.6,1.66-1.73,3.3-3.13,2.48-2.1,1.88-4.63,1.88-4.63,2.76-4.48-1.58-5.35-1.58-5.35.02-1.35-1.07-1.93-1.47-2.15s-1.93-.53-2.54-1.58c-.55-.93-.29-2.66,1.29-4.22.53.72,1.49,2.09,2.38,3.65h-.03ZM40.88,33.25c-.93-1.42-.95-3.19-1.58-4.52-.56-1.19-1.44-1.72-2.08-1.96-.15-.05-.26-.08-.39-.08s-.24.03-.39.08c-.64.24-1.53.77-2.08,1.96-.63,1.34-.65,3.1-1.58,4.52-.84-1.1-1.56-2.07-2.16-2.78-.37-.43-.7-.79-.99-1.07-.12-.12-.09-.33.07-.41.26-.12.54-.24.82-.33,1.69-.58,2.1-.57,3.26-1.89.7-.79.46-1.18,2.03-2.2.45-.29.79-.64,1.02-.97.24.33.57.68,1.02.97,1.57,1.01,1.33,1.4,2.03,2.2,1.16,1.32,1.57,1.32,3.26,1.89.28.1.56.21.82.33.16.07.19.28.07.41-.29.28-.62.63-.99,1.07-.6.71-1.33,1.69-2.16,2.78h0Z"/>
  <path class="st0" d="M44.61,87.75c-.58-.43-1.4.65-1.72,1.1-.34.48-.83,1.03-1.02,1.26-.12.14-.04.27.17.24.59-.1,1.19-.35,2.02-.94,1.04-.74.75-1.52.57-1.66h-.02Z"/>
  <path class="st0" d="M30.77,88.85c-.32-.45-1.15-1.53-1.72-1.1-.18.14-.47.92.57,1.66.83.59,1.42.84,2.02.94.2.03.29-.1.17-.24-.2-.23-.68-.78-1.02-1.26h-.02Z"/>
  <path class="st0" d="M24.57,31.93c.45,0,.87-.25,1.1-.7.16-.32.17-.84.24-1.24,0-.08.03-.16.05-.24.38-1.54,1.48-2.51,2.46-3.38.65-.58,1.27-1.13,1.65-1.8.14-.25.24-.49.35-.78.38-.95.85-2.14,3.34-4.7,1.74-1.79,2.08-5.06,2.17-5.78.14-1.12.8-2.15.9-2.31.11.16.76,1.2.9,2.31.09.73.43,3.99,2.17,5.78,2.49,2.56,2.96,3.75,3.34,4.7.11.28.21.52.35.78.37.67.99,1.22,1.65,1.8.98.87,2.07,1.84,2.46,3.38.02.08.04.16.05.24.07.4.08.92.24,1.24.23.45.65.7,1.1.7.69,0,1.24-.56,1.24-1.24s-.56-1.24-1.24-1.24c-.31,0-.58.12-.8.3-.4-1.79-1.64-2.9-2.67-3.81-.62-.55-1.2-1.06-1.53-1.65-.12-.22-.21-.43-.32-.71-.4-1-.89-2.25-3.46-4.89-.46-.47-2.09-1.99-.92-7.4.67-3.08-.57-5.08-1.36-6.7-.59-1.2-.99-2.82-1.16-3.56,0,0,0-.08-.04-.08s-.04.08-.04.08c-.17.75-.58,2.36-1.16,3.56-.79,1.61-2.03,3.61-1.36,6.7,1.17,5.41-.46,6.92-.92,7.4-2.57,2.64-3.07,3.89-3.46,4.89-.11.27-.19.49-.32.71-.33.58-.91,1.1-1.53,1.65-1.03.91-2.27,2.01-2.67,3.81-.22-.19-.49-.3-.8-.3-.69,0-1.24.56-1.24,1.24s.56,1.24,1.24,1.24ZM36.83,3.43c.26,1.09,1.68,3.54,1.71,4.58.04,1.15-.89,3.15-.89,3.15l-.47-.82s.76-1.11.76-2.12c0-.85-.93-1.42-1.09-2.39,0-.03-.04-.03-.05,0-.16.97-1.08,1.55-1.08,2.39,0,1.01.76,2.12.76,2.12l-.47.82s-.92-2.01-.89-3.15c.03-1.04,1.45-3.5,1.71-4.58Z"/>
</svg>