<?xml version="1.0" encoding="UTF-8"?>
<svg id="Layer_1" data-name="Layer 1" xmlns="http://www.w3.org/2000/svg" viewBox="0 0 620 200">
  <defs>
    <style>
      .cls-1 {
        fill: #fff;
      }
    </style>
  </defs>
  <path class="cls-1" d="M147.96,59.42c1.05,0,4.69.35,7.98.35,1.96,0,2.52-.14,5.32-.14,1.12,0,1.54.28,1.54.7,0,.49-.49,1.12-1.54,1.4-2.52.56-2.03,1.4-1.05,3.22.84,1.61,6.02,10.22,9.17,15.33.14.21.56.14.7-.14,1.96-2.8,7.28-11.55,9.03-14.42,1.47-2.52.7-3.36-2.03-3.99-1.05-.28-1.47-.91-1.47-1.4s.84-.63,1.61-.63c1.82,0,2.94.07,4.55.07,2.59,0,6.65-.28,7.77-.28.77,0,1.47.28,1.47.7,0,.56-.63.91-1.82,1.26-3.29.84-5.32,2.59-7.63,5.46-3.29,4.13-6.93,10.29-9.31,13.72-.77,1.12-1.75,3.36-1.75,4.27,0,3.92.14,12.6.42,14.84.28,1.47,1.05,2.31,4.97,3.29,1.4.35,1.89.77,1.89,1.26,0,.56-.7.77-2.1.77-1.05,0-4.48-.28-6.09-.28-4.2,0-8.75.42-9.8.42-1.19,0-1.75-.35-1.75-.77s.49-.98,1.96-1.26c3.78-.84,4.48-2.38,4.55-3.36.21-2.87.21-10.43.21-14.49,0-.35-.42-1.96-.63-2.52-1.19-2.52-5.53-9.59-8.89-14.7-3.29-4.9-4.13-5.88-7.21-6.58-1.33-.28-1.96-.84-1.96-1.4,0-.42.7-.7,1.89-.7"/>
  <path class="cls-1" d="M209.63,79.79c1.05,1.47,1.4,2.87,1.4,5.81,0,2.73-.28,11.55-.28,12.32,0,3.22,2.24,3.5,2.8,3.5.28,0,1.89-.49,2.66-1.05.21-.14.28,0,.42.21.21.21.21.63.21.7,0,1.33-3.15,4.34-6.3,4.34-1.61,0-3.64-.91-4.48-3.5,0-.07-.28-.35-.42-.28-2.59,1.82-5.6,3.01-6.3,3.22-.77.28-2.45.42-2.8.42-2.45,0-4.83-3.01-4.83-6.51,0-1.26.56-2.59,1.33-3.57.7-.91,1.75-1.26,2.8-1.75,1.05-.42,6.65-1.96,8.19-2.45,1.61-.49,2.03-.84,2.03-1.26.07-.63.14-4.9.14-5.74,0-1.75-2.03-4.69-5.46-4.69-1.47,0-2.38.42-2.87.77-.42.21-.63,1.47-.49,2.87,0,.21-.28.63-.42.77-.7.56-4.2,2.31-4.55,2.31-.42,0-.84-.56-.84-.91,0-2.03,1.96-3.99,5.25-6.16,2.03-1.47,5.18-2.66,6.51-2.66,3.5,0,5.25,1.75,6.3,3.29M205.01,100.65c.42-.28.84-1.61.84-1.75.14-1.68.14-4.06.14-5.46,0-.21-.28-.56-.56-.56-1.96,0-5.32,1.19-7.21,2.1-.7.49-1.4.98-1.4,2.66,0,3.08,2.94,4.2,4.41,4.2,1.05,0,2.45-.49,3.78-1.19"/>
  <path class="cls-1" d="M221.53,78.95c2.31-.77,4.48-1.82,5.18-2.24.84-.56,1.19-.84,1.4-.84.28,0,.63.63.63.84,0,1.26-.14,2.52-.14,3.85,0,.28.35.35.49.28,2.73-2.59,5.81-4.34,7.98-4.34,2.87,0,3.5,1.75,3.5,2.38,0,.14-.21.63-.42.98-.77,1.12-2.45,3.01-2.87,3.22-.14.07-.77-.07-.98-.21-.77-.7-2.45-1.54-3.85-1.54-1.19,0-2.38.21-3.08.98-.49.56-.7,1.19-.7,1.54,0,1.4.35,14.07.42,15.12.14,2.03.56,3.36,1.82,3.57.91.21,2.17.56,3.22.84,1.12.35,1.26.84,1.26,1.12,0,.35-.63.63-1.68.63-1.75,0-4.2-.35-8.26-.35-2.1,0-2.94.28-4.62.28-.77,0-1.47-.28-1.47-.84,0-.42.84-.7,1.4-.91,2.73-.91,2.94-1.61,3.01-5.81v-13.37c0-.7,0-1.61-.77-2.1-1.68-1.33-2.38-1.61-2.38-1.89,0-.21.14-.91.91-1.19"/>
  <path class="cls-1" d="M257.86,76.92c.77.14,2.1.7,2.24.77.14.07.56.56.56.98,0,1.26.21,3.64.21,4.13,0,.63-.28,1.26-.84,1.26-.28,0-.7-.42-1.05-1.19-1.54-3.29-3.29-4.69-5.6-4.69-2.87,0-4.2,2.87-4.2,4.34,0,2.38,2.24,4.2,6.93,6.79,3.92,2.31,5.46,4.69,5.46,7.84s-2.31,5.6-4.06,6.86c-1.26.84-3.71,1.61-5.88,1.61s-5.6-.56-6.79-1.54c-.21-.35-1.05-3.29-1.05-5.32,0-.77.14-1.47.56-1.47.56,0,1.05.84,1.47,1.61,1.96,3.57,3.85,4.97,6.37,4.97.91,0,2.03-.49,2.8-1.05,1.05-.84,1.61-2.52,1.61-3.85,0-1.89-.98-3.36-3.15-4.69-1.68-1.19-2.1-1.54-4.27-2.94-2.1-1.33-4.34-3.78-4.34-7.07,0-2.38,1.19-4.69,3.85-6.3,1.33-.84,3.22-1.47,5.6-1.47,1.33,0,2.8.21,3.57.42"/>
  <path class="cls-1" d="M292.02,79.72c1.4,1.89,2.03,4.55,2.03,7.56.07,4.41.21,8.75.28,12.95,0,1.75.91,2.31,2.73,2.73,1.4.28,1.96.7,1.96,1.12,0,.63-.56.91-1.89.91-2.38,0-3.15-.21-5.53-.21-1.61,0-3.01.14-5.04.14-1.05,0-1.4-.35-1.4-.84,0-.42.63-.77,1.47-.98,1.75-.56,1.96-.77,2.24-3.43.14-1.33,0-9.03,0-10.15,0-3.85-.35-6.09-1.12-7-1.12-1.33-2.94-2.31-5.67-2.31-3.01,0-5.32,1.33-5.6,1.61-.14.14-1.05,1.26-1.12,3.43-.21,2.94-.21,12.04-.14,14.56.14,2.31,1.12,2.73,2.73,3.15.98.28,1.54.77,1.54,1.12,0,.63-.77.84-1.75.84-.56,0-4.06-.14-5.74-.14s-4.13.21-5.32.21c-.63,0-1.61-.21-1.61-.91,0-.35.56-.77,2.03-1.19,1.82-.63,2.52-1.4,2.73-3.99.21-2.94.7-12.39.7-19.46,0-2.8.07-14.63-.21-16.66-.21-1.82-.35-1.96-2.31-3.22-.28-.14-.7-.84-.7-1.4,0-.14.07-.28.21-.35,2.17-.63,5.32-1.33,7-2.45.28-.14.91-.49,1.33-.49.28,0,.42.56.42.77-.7,5.04-.98,22.47-.98,24.5,0,.42.42.49.49.42,2.87-2.59,5.88-4.06,8.82-4.06,3.5,0,5.95,1.19,7.42,3.22"/>
  <path class="cls-1" d="M321.56,79.79c1.05,1.47,1.4,2.87,1.4,5.81,0,2.73-.28,11.55-.28,12.32,0,3.22,2.24,3.5,2.8,3.5.28,0,1.89-.49,2.66-1.05.21-.14.28,0,.42.21.21.21.21.63.21.7,0,1.33-3.15,4.34-6.3,4.34-1.61,0-3.64-.91-4.48-3.5,0-.07-.28-.35-.42-.28-2.59,1.82-5.6,3.01-6.3,3.22-.77.28-2.45.42-2.8.42-2.45,0-4.83-3.01-4.83-6.51,0-1.26.56-2.59,1.33-3.57.7-.91,1.75-1.26,2.8-1.75,1.05-.42,6.65-1.96,8.19-2.45,1.61-.49,2.03-.84,2.03-1.26.07-.63.14-4.9.14-5.74,0-1.75-2.03-4.69-5.46-4.69-1.47,0-2.38.42-2.87.77-.42.21-.63,1.47-.49,2.87,0,.21-.28.63-.42.77-.7.56-4.2,2.31-4.55,2.31-.42,0-.84-.56-.84-.91,0-2.03,1.96-3.99,5.25-6.16,2.03-1.47,5.18-2.66,6.51-2.66,3.5,0,5.25,1.75,6.3,3.29M316.94,100.65c.42-.28.84-1.61.84-1.75.14-1.68.14-4.06.14-5.46,0-.21-.28-.56-.56-.56-1.96,0-5.32,1.19-7.21,2.1-.7.49-1.4.98-1.4,2.66,0,3.08,2.94,4.2,4.41,4.2,1.05,0,2.45-.49,3.78-1.19"/>
  <path class="cls-1" d="M349.07,77.2c.07,0,.77.35.77.56,0-.21.21,1.75.21,2.66,0,.63-1.33.77-1.82.77h-7.63c-.35,0-.63.35-.63.49-.07,1.4-.14,11.69-.14,15.05,0,1.75.42,2.66,1.19,3.43,1.33,1.19,2.8,1.33,4.27,1.33.91,0,2.38-.42,3.43-1.05.63-.35.77-.42,1.05-.42.07,0,.42.14.42.77,0,.56-.49,1.26-.98,1.75-1.89,1.82-4.34,3.08-7.49,3.08-2.87,0-5.32-1.75-6.16-3.29-.77-1.19-.91-2.66-.91-4.62,0-2.59.28-13.09.28-15.54,0-.49-1.26-.98-2.66-1.4-.56-.21-.98-.56-.98-.77,0-.28.21-.56.42-.77,2.45-1.96,4.62-3.64,5.6-4.83.84-.98,1.33-1.54,1.61-1.54.35,0,.98.63.98.77v3.29c0,.21.28.56.56.56,1.54,0,8.33-.28,8.61-.28"/>
  <path class="cls-1" d="M374.97,79.23c1.54,1.47,2.45,3.43,2.45,5.88,0,.42-.56,1.19-1.33,1.19s-12.74,0-15.96-.07c-.21,0-.49.35-.56.56-.21.56-.35,1.75-.35,2.45,0,2.73,1.12,5.95,2.66,7.98,1.54,2.1,4.48,3.85,7.84,3.85,3.08,0,5.18-.77,6.37-2.52.28-.42.63-.84.91-.84.42,0,.56.49.56.84,0,.56-.28,1.33-.49,1.68-2.45,3.57-6.16,5.25-10.15,5.25-7.56,0-12.6-5.74-12.6-13.93,0-5.6,2.94-11.2,8.4-13.72,1.82-.84,4.13-1.26,5.32-1.26,2.45,0,5.18.91,6.93,2.66M360.27,83.57c-.14.35.14.77.28.77,1.82.07,5.53.07,9.03,0,1.68,0,2.38-.35,2.38-1.75,0-1.96-2.1-4.2-4.62-4.2-3.15,0-5.81,1.96-7.07,5.18"/>
  <path class="cls-1" d="M384.42,78.95c2.31-.77,4.48-1.82,5.18-2.24.84-.56,1.19-.84,1.4-.84.28,0,.63.63.63.84,0,1.26-.14,2.52-.14,3.85,0,.28.35.35.49.28,2.73-2.59,5.81-4.34,7.98-4.34,2.87,0,3.5,1.75,3.5,2.38,0,.14-.21.63-.42.98-.77,1.12-2.45,3.01-2.87,3.22-.14.07-.77-.07-.98-.21-.77-.7-2.45-1.54-3.85-1.54-1.19,0-2.38.21-3.08.98-.49.56-.7,1.19-.7,1.54,0,1.4.35,14.07.42,15.12.14,2.03.56,3.36,1.82,3.57.91.21,2.17.56,3.22.84,1.12.35,1.26.84,1.26,1.12,0,.35-.63.63-1.68.63-1.75,0-4.2-.35-8.26-.35-2.1,0-2.94.28-4.62.28-.77,0-1.47-.28-1.47-.84,0-.42.84-.7,1.4-.91,2.73-.91,2.94-1.61,3.01-5.81v-13.37c0-.7,0-1.61-.77-2.1-1.68-1.33-2.38-1.61-2.38-1.89,0-.21.14-.91.91-1.19"/>
  <path class="cls-1" d="M457.08,59.63c1.82.28,4.27,1.19,5.32,1.33.35,0,1.05.49,1.05,2.1,0,1.47.35,4.55.49,6.09.07,1.47-.49,2.31-1.05,2.31-.35,0-.77-.77-1.12-1.82-.63-2.45-1.96-4.55-2.87-5.25-3.85-2.87-7.42-3.64-11.2-3.64-11.27,0-18.48,9.31-18.48,19.88,0,4.69.91,8.47,2.45,11.55,3.92,8.05,12.04,11.2,17.71,11.2,1.33,0,4.76-.21,7.63-1.89,3.08-1.61,4.83-3.85,6.51-6.79.91-1.47,1.19-1.82,1.47-1.82.7,0,.77,1.54.63,2.31-.21,1.75-1.82,5.46-2.8,7.07-.28.63-1.47,1.47-2.17,1.82-1.12.49-6.79,1.96-12.74,1.96-9.87,0-17.08-4.9-19.88-8.19-2.66-3.08-5.88-8.12-5.88-16.1s4.76-14.35,7.7-16.8c6.02-4.9,12.53-6.44,18.97-6.44,2.45,0,5.6.49,8.26,1.12"/>
  <path class="cls-1" d="M492.29,79.23c1.54,1.47,2.45,3.43,2.45,5.88,0,.42-.56,1.19-1.33,1.19s-12.74,0-15.96-.07c-.21,0-.49.35-.56.56-.21.56-.35,1.75-.35,2.45,0,2.73,1.12,5.95,2.66,7.98,1.54,2.1,4.48,3.85,7.84,3.85,3.08,0,5.18-.77,6.37-2.52.28-.42.63-.84.91-.84.42,0,.56.49.56.84,0,.56-.28,1.33-.49,1.68-2.45,3.57-6.16,5.25-10.15,5.25-7.56,0-12.6-5.74-12.6-13.93,0-5.6,2.94-11.2,8.4-13.72,1.82-.84,4.13-1.26,5.32-1.26,2.45,0,5.18.91,6.93,2.66M477.59,83.57c-.14.35.14.77.28.77,1.82.07,5.53.07,9.03,0,1.68,0,2.38-.35,2.38-1.75,0-1.96-2.1-4.2-4.62-4.2-3.15,0-5.81,1.96-7.07,5.18"/>
  <path class="cls-1" d="M502.23,78.46c1.19-.42,3.71-1.33,4.69-2.03.7-.42,1.33-.77,1.68-.77s.7.77.7,1.05c0,1.19-.28,2.87-.28,3.5,0,.35.35.21.42.21,2.8-1.89,6.44-3.85,9.38-3.85,3.43,0,5.39,1.54,6.37,2.66,1.54,1.82,2.45,5.04,2.45,8.54,0,1.33.14,11.76.21,12.74.14,1.05.84,1.96,2.59,2.45,1.33.35,1.75.7,1.75,1.19s-.98.77-2.1.77c-1.61,0-3.22-.14-5.18-.14-1.75,0-3.92.14-4.83.14-.63,0-1.61-.28-1.61-.84,0-.49.77-.91,1.61-1.19,1.68-.63,2.03-1.19,2.17-3.5.14-2.31.21-10.78.21-12.81,0-2.52-1.26-4.55-2.1-5.18-.77-.56-2.87-1.33-4.48-1.33-3.08,0-4.9,1.05-6.23,2.24-.21.21-.7,1.05-.7,1.68,0,.91,0,15.96.07,16.8.07.98.35,1.54,2.59,2.17.7.21,1.26.63,1.26,1.05,0,.49-.77.84-1.75.84-.84,0-2.8-.07-4.27-.07-2.59,0-4.62.21-5.81.21-1.05,0-1.82-.28-1.82-.91,0-.49.7-.84,1.47-1.05,2.31-.7,2.73-1.4,2.94-3.92.21-2.1.35-8.19.35-15.33,0-.77-.14-1.47-1.68-2.73-.91-.63-1.33-.98-1.33-1.19,0-.49.77-1.19,1.26-1.4"/>
  <path class="cls-1" d="M554.31,77.2c.07,0,.77.35.77.56,0-.21.21,1.75.21,2.66,0,.63-1.33.77-1.82.77h-7.63c-.35,0-.63.35-.63.49-.07,1.4-.14,11.69-.14,15.05,0,1.75.42,2.66,1.19,3.43,1.33,1.19,2.8,1.33,4.27,1.33.91,0,2.38-.42,3.43-1.05.63-.35.77-.42,1.05-.42.07,0,.42.14.42.77,0,.56-.49,1.26-.98,1.75-1.89,1.82-4.34,3.08-7.49,3.08-2.87,0-5.32-1.75-6.16-3.29-.77-1.19-.91-2.66-.91-4.62,0-2.59.28-13.09.28-15.54,0-.49-1.26-.98-2.66-1.4-.56-.21-.98-.56-.98-.77,0-.28.21-.56.42-.77,2.45-1.96,4.62-3.64,5.6-4.83.84-.98,1.33-1.54,1.61-1.54.35,0,.98.63.98.77v3.29c0,.21.28.56.56.56,1.54,0,8.33-.28,8.61-.28"/>
  <path class="cls-1" d="M580.21,79.23c1.54,1.47,2.45,3.43,2.45,5.88,0,.42-.56,1.19-1.33,1.19s-12.74,0-15.96-.07c-.21,0-.49.35-.56.56-.21.56-.35,1.75-.35,2.45,0,2.73,1.12,5.95,2.66,7.98,1.54,2.1,4.48,3.85,7.84,3.85,3.08,0,5.18-.77,6.37-2.52.28-.42.63-.84.91-.84.42,0,.56.49.56.84,0,.56-.28,1.33-.49,1.68-2.45,3.57-6.16,5.25-10.15,5.25-7.56,0-12.6-5.74-12.6-13.93,0-5.6,2.94-11.2,8.4-13.72,1.82-.84,4.13-1.26,5.32-1.26,2.45,0,5.18.91,6.93,2.66M565.51,83.57c-.14.35.14.77.28.77,1.82.07,5.53.07,9.03,0,1.68,0,2.38-.35,2.38-1.75,0-1.96-2.1-4.2-4.62-4.2-3.15,0-5.81,1.96-7.07,5.18"/>
  <path class="cls-1" d="M589.66,78.95c2.31-.77,4.48-1.82,5.18-2.24.84-.56,1.19-.84,1.4-.84.28,0,.63.63.63.84,0,1.26-.14,2.52-.14,3.85,0,.28.35.35.49.28,2.73-2.59,5.81-4.34,7.98-4.34,2.87,0,3.5,1.75,3.5,2.38,0,.14-.21.63-.42.98-.77,1.12-2.45,3.01-2.87,3.22-.14.07-.77-.07-.98-.21-.77-.7-2.45-1.54-3.85-1.54-1.19,0-2.38.21-3.08.98-.49.56-.7,1.19-.7,1.54,0,1.4.35,14.07.42,15.12.14,2.03.56,3.36,1.82,3.57.91.21,2.17.56,3.22.84,1.12.35,1.26.84,1.26,1.12,0,.35-.63.63-1.68.63-1.75,0-4.2-.35-8.26-.35-2.1,0-2.94.28-4.62.28-.77,0-1.47-.28-1.47-.84,0-.42.84-.7,1.4-.91,2.73-.91,2.94-1.61,3.01-5.81v-13.37c0-.7,0-1.61-.77-2.1-1.68-1.33-2.38-1.61-2.38-1.89,0-.21.14-.91.91-1.19"/>
  <path class="cls-1" d="M158.19,138.87c.15,0,.24.3.24.39,0,.18-.33.66-.71.66-.65,0-1.75.09-2.61.09-.09,0-.18.09-.24.24-.95,3.03-2.82,9.87-3.77,13.32-.86,2.91-2.17,3.6-2.94,4.2-1.1.78-2.76,1.32-3.33,1.32-1.37,0-2.11-.63-2.08-1.35,0-.39.86-1.38,1.28-1.38.12-.03.36.06.48.21.56.75,1.22,1.17,1.93,1.17.8,0,1.75-.48,2.64-3.96.95-3.57,2.55-9.51,3.77-13.53.03-.06,0-.24-.18-.24l-1.81.06c-.21,0-.3-.18-.3-.3,0-.36.33-.72.56-.72.53,0,1.54-.03,1.96-.03.09,0,.18-.15.21-.21.98-2.88,2.7-6.9,4.96-8.43,1.19-.84,2.11-1.11,2.91-1.11,1.51,0,2.23.96,2.2,1.89-.03,1.29-.98,2.04-1.45,2.04-.15,0-.24-.09-.24-.3,0-.15.03-.45.03-.63.03-1.11-.45-2.13-1.25-2.13-.89,0-1.66.48-2.82,2.55-.77,1.41-1.69,4.02-2.26,5.97-.03.12.09.3.12.3l2.7-.09Z"/>
  <path class="cls-1" d="M167.48,142.02c0,3.99-2.7,7.35-5.17,8.61-.74.36-1.51.63-2.46.63-1.13,0-2.58-1.17-2.58-3.21,0-1.83,1.25-5.61,3.74-7.8.98-.87,2.26-1.59,3.68-1.59,1.81,0,2.79,1.92,2.79,3.36M162.31,140.79c-1.4,1.62-2.97,5.31-2.97,8.31,0,.69.36,1.32,1.13,1.32.48,0,1.13-.3,1.96-1.35,1.28-1.59,3.12-5.49,3.12-8.19,0-.84-.3-1.44-1.1-1.44-.68,0-1.37.42-2.14,1.35"/>
  <path class="cls-1" d="M174.14,140.01c0,.99-.71,3.15-.98,3.84-.18.54.15.45.53-.21.71-1.23,1.57-2.4,2.35-3.27.86-1.02,1.75-1.71,2.58-1.71.89,0,1.13.72,1.13,1.23,0,1.17-1.04,2.25-1.39,2.25-.21,0-.36-.15-.36-.66-.03-.6-.3-1.11-.56-1.11-.36,0-.89.33-1.96,2.04-1.13,1.71-3.68,6.84-4.16,7.8-.45.93-.98,1.08-1.25,1.08-.24,0-.57-.18-.68-.42-.06-.06-.03-.39,0-.45,1.25-3.21,2.08-5.31,3.03-8.31.33-1.14.03-1.41-.3-1.41-.47,0-1.1.45-1.66,1.17-.33.42-.53.6-.65.6-.18,0-.24-.51-.12-.87.62-1.74,1.96-2.94,3.21-2.94.83,0,1.25.72,1.25,1.35"/>
  <path class="cls-1" d="M192.12,138.96s.33.15.33.24c0-.09.09.75.09,1.14,0,.27-.56.33-.77.33h-3.24c-.15,0-.27.15-.27.21-.03.6-.06,5.01-.06,6.45,0,.75.18,1.14.51,1.47.56.51,1.19.57,1.81.57.39,0,1.01-.18,1.46-.45.27-.15.33-.18.45-.18.03,0,.18.06.18.33,0,.24-.21.54-.42.75-.8.78-1.84,1.32-3.18,1.32-1.22,0-2.26-.75-2.61-1.41-.33-.51-.39-1.14-.39-1.98,0-1.11.12-5.61.12-6.66,0-.21-.54-.42-1.13-.6-.24-.09-.42-.24-.42-.33,0-.12.09-.24.18-.33,1.04-.84,1.96-1.56,2.38-2.07.36-.42.56-.66.68-.66.15,0,.42.27.42.33v1.41c0,.09.12.24.24.24.65,0,3.53-.12,3.65-.12"/>
  <path class="cls-1" d="M204.59,140.04c.59.81.86,1.95.86,3.24.03,1.89.09,3.75.12,5.55,0,.75.39.99,1.16,1.17.59.12.83.3.83.48,0,.27-.24.39-.8.39-1.01,0-1.34-.09-2.35-.09-.68,0-1.28.06-2.14.06-.45,0-.59-.15-.59-.36,0-.18.27-.33.62-.42.74-.24.83-.33.95-1.47.06-.57,0-3.87,0-4.35,0-1.65-.15-2.61-.48-3-.47-.57-1.25-.99-2.4-.99-1.28,0-2.26.57-2.38.69-.06.06-.44.54-.47,1.47-.09,1.26-.09,5.16-.06,6.24.06.99.48,1.17,1.16,1.35.42.12.65.33.65.48,0,.27-.33.36-.74.36-.24,0-1.72-.06-2.43-.06s-1.75.09-2.26.09c-.27,0-.68-.09-.68-.39,0-.15.24-.33.86-.51.77-.27,1.07-.6,1.16-1.71.09-1.26.3-5.31.3-8.34,0-1.2.03-6.27-.09-7.14-.09-.78-.15-.84-.98-1.38-.12-.06-.3-.36-.3-.6,0-.06.03-.12.09-.15.92-.27,2.26-.57,2.97-1.05.12-.06.39-.21.57-.21.12,0,.18.24.18.33-.3,2.16-.42,9.63-.42,10.5,0,.18.18.21.21.18,1.22-1.11,2.49-1.74,3.74-1.74,1.48,0,2.52.51,3.15,1.38"/>
  <path class="cls-1" d="M217.03,139.83c.65.63,1.04,1.47,1.04,2.52,0,.18-.24.51-.56.51s-5.4,0-6.77-.03c-.09,0-.21.15-.24.24-.09.24-.15.75-.15,1.05,0,1.17.47,2.55,1.13,3.42.65.9,1.9,1.65,3.33,1.65,1.31,0,2.2-.33,2.7-1.08.12-.18.27-.36.39-.36.18,0,.24.21.24.36,0,.24-.12.57-.21.72-1.04,1.53-2.61,2.25-4.3,2.25-3.21,0-5.35-2.46-5.35-5.97,0-2.4,1.25-4.8,3.56-5.88.77-.36,1.75-.54,2.26-.54,1.04,0,2.2.39,2.94,1.14M210.8,141.69c-.06.15.06.33.12.33.77.03,2.35.03,3.83,0,.71,0,1.01-.15,1.01-.75,0-.84-.89-1.8-1.96-1.8-1.34,0-2.46.84-3,2.22"/>
  <path class="cls-1" d="M234.43,131.49c.18.06.36.51.36.57.06.57.3,2.31.3,2.43,0,.51,0,.81-.21.81-.24,0-.59-.21-.71-.63-.36-1.08-1.16-1.98-1.45-2.16-.53-.42-1.25-.69-2.11-.69-1.99,0-3.41,1.5-3.41,3.51,0,2.13,1.51,3.06,4.13,4.83,2.29,1.56,4.1,3.12,4.1,5.82,0,1.5-.83,3.18-2.43,4.23-.95.63-2.7,1.08-4.04,1.08-.95,0-2.97-.33-3.89-.78-.3-.18-.68-.84-.68-.96-.15-1.02-.45-2.34-.45-2.82,0-.12.3-.57.42-.57.24,0,.68.78,1.1,1.71.77,1.65,2.73,2.4,3.86,2.4,2.05,0,3.59-1.47,3.59-3.63,0-1.26-.6-2.61-3.71-4.62-2.52-1.65-4.31-3.39-4.31-5.94,0-1.41.62-2.76,1.63-3.66.92-.84,2.32-1.47,4.39-1.47,1.45,0,3,.45,3.53.54"/>
  <path class="cls-1" d="M245.33,138.96s.33.15.33.24c0-.09.09.75.09,1.14,0,.27-.56.33-.77.33h-3.24c-.15,0-.27.15-.27.21-.03.6-.06,5.01-.06,6.45,0,.75.18,1.14.51,1.47.56.51,1.19.57,1.81.57.39,0,1.01-.18,1.46-.45.27-.15.33-.18.45-.18.03,0,.18.06.18.33,0,.24-.21.54-.42.75-.8.78-1.84,1.32-3.18,1.32-1.22,0-2.26-.75-2.61-1.41-.33-.51-.39-1.14-.39-1.98,0-1.11.12-5.61.12-6.66,0-.21-.54-.42-1.13-.6-.24-.09-.42-.24-.42-.33,0-.12.09-.24.18-.33,1.04-.84,1.96-1.56,2.38-2.07.36-.42.56-.66.68-.66.15,0,.42.27.42.33v1.41c0,.09.12.24.24.24.65,0,3.53-.12,3.65-.12"/>
  <path class="cls-1" d="M254.86,148.59c.18-.15.45-.6.45-.72l.06-6.9c0-.18-.33-.6-.51-.66-.45-.12-1.1-.3-1.37-.36-.21-.06-.59-.24-.59-.48,0-.12.39-.27.68-.27,1.19,0,2.49-.15,3.18-.33.3-.09.51-.12.71-.12.15,0,.21.33.21.45-.06.84-.3,7.5-.3,9.96,0,.06.12.42.36.42.21,0,1.13-.15,1.48-.15.12,0,.33.48.36.57,0,.09-.21.3-.33.3-.77.06-2.02.39-2.7.57-.5.15-.98.27-1.04.27-.12,0-.3-.21-.3-.42,0-.18.09-.75.12-1.26,0-.15-.09-.24-.15-.21-.86.6-2.05,1.38-2.43,1.53-.51.21-1.16.36-1.99.36-1.07,0-2.02-.48-2.61-1.41-.21-.33-.42-.93-.42-1.41,0-2.16,0-5.55-.06-7.14-.03-.84-.59-.96-1.1-1.17-.27-.12-.53-.27-.53-.54,0-.09.15-.27.51-.27.83,0,3.03-.33,3.15-.33s.24.27.24.45c.03,1.02-.09,6.69-.09,8.04,0,.69.33,1.38.74,1.68.77.6,1.31.6,2.02.6s1.51-.39,2.26-1.05"/>
  <path class="cls-1" d="M270.01,138.78c.12.03.21-.18.24-.33.15-.81.06-5.4-.03-6.12-.03-.15-.03-.51-1.4-1.23-.27-.15-.3-.21-.3-.27,0-.12.33-.48.51-.51.68-.09,2.26-.54,3.03-.84.18-.06.27-.09.39-.09.09,0,.27.21.24.48-.15,1.59-.27,2.67-.27,11.85,0,5.79.06,6.27.06,6.84.06,1.11.3,1.23.48,1.23.33,0,1.31-.21,1.6-.24.12,0,.18.15.18.18,0,.21-.36.72-.51.75-.56.09-2.11.39-2.67.6-.68.24-.92.3-1.07.3-.12,0-.33-.24-.33-.39,0-.27.06-.81.06-1.23,0-.12-.12-.18-.18-.18-1.37,1.23-2.88,1.5-3.86,1.5-1.42,0-2.79-.66-3.71-1.65-.95-1.08-1.43-2.61-1.43-4.11,0-2.94,1.69-4.65,3.15-5.52,1.37-.84,3.12-1.14,3.92-1.14,1.07,0,1.54.06,1.9.12M264.69,140.7c-.56.57-1.25,2.1-1.25,3.78,0,2.4,1.66,5.16,4.22,5.16.95,0,1.63-.33,2.17-.72.06-.06.45-1.02.48-1.98.03-1.92,0-3.57-.09-4.98-.03-.24-.3-.78-.65-1.14-.83-.84-1.96-1.17-2.55-1.17-.95,0-1.78.51-2.32,1.05"/>
  <path class="cls-1" d="M274.7,138.96c.74,0,1.45.12,2.32.12s1.72-.06,2.08-.06c.24,0,.65.09.65.33,0,.21-.21.39-.68.51-.83.24-.92.39-.62,1.17.45,1.44,2.35,6.15,2.58,6.51.03.06.15.06.24-.12.36-.81,2.2-5.67,2.35-6.15.27-.84.03-1.2-1.13-1.47-.36-.09-.62-.3-.62-.42,0-.27.39-.33.74-.33.57,0,1.37.03,1.75.03.42,0,1.1-.12,1.87-.12.39,0,.59.06.59.27,0,.27-.3.39-.65.51-.62.21-1.01.57-1.46,1.56-.98,2.25-2.58,6.27-3.27,8.01-1.04,2.73-2.14,5.82-3.09,8.37-.12.39-.68.84-1.54.84-1.01,0-1.34-.84-1.34-1.47,0-.51.48-1.32,1.31-1.32.15,0,.77.03,1.07.03.27,0,.33-.21.45-.51.27-.48,1.22-3.12,1.43-3.87.09-.42.21-.81.09-1.08-.09-.21-.33-.9-.45-1.23-.62-1.77-2.46-6.24-3.39-8.13-.27-.54-.42-.84-1.39-1.17-.42-.15-.59-.27-.59-.45,0-.12.09-.36.71-.36"/>
  <path class="cls-1" d="M303.45,144.78c0,2.49-1.49,4.44-2.58,5.16-1.19.87-2.35,1.2-3.68,1.2s-2.85-.63-3.95-1.56c-1.28-1.05-2.2-3.09-2.2-4.59,0-2.28.95-3.72,2.08-4.68.92-.81,2.4-1.65,4.39-1.65,2.94,0,5.94,2.34,5.94,6.12M295.01,140.43c-.77.72-1.45,2.28-1.45,3.84,0,.99.12,1.92.36,2.67.74,2.25,2.44,3.33,3.86,3.33.33,0,.98-.15,1.81-.99.74-.81,1.34-2.67,1.34-3.96,0-1.56-.36-3.27-1.48-4.59-.65-.72-1.72-1.17-2.49-1.17-.62,0-1.31.33-1.93.87"/>
  <path class="cls-1" d="M313.07,139.05c.21,0,.42.63.42,1.26,0,.09-.3.3-.45.3-.21,0-3.15-.09-3.47-.09-.06,0-.21.18-.21.24-.06.6.03,7.17.09,7.68.12,1.05.33,1.32,1.99,1.59.51.09.68.33.68.45,0,.3-.42.36-.77.36s-1.72-.06-2.46-.06c-1.07,0-2.67.15-2.97.15-.42,0-.74-.12-.74-.33,0-.15.3-.36.62-.48,1.28-.36,1.31-.66,1.34-2.01.03-1.23.06-4.83.06-6.45,0-1.02-.18-1.11-.3-1.11-.3,0-.92,0-1.25.06-.15,0-.36-.3-.27-.51.03-.12.77-.45,1.46-.99.21-.18.39-.36.39-.51.06-1.8.21-3.18.74-4.47.62-1.5,1.36-2.58,2.67-3.54,1.19-.9,2.26-1.23,3.39-1.23.62,0,1.42.18,1.9.57.3.24.5.66.5,1.02,0,.42-.39,1.11-.8,1.26-.15.06-.36.09-.53.09-.21,0-.39-.18-.8-.6-.56-.51-1.31-.93-2.08-.93-.71,0-1.31.36-1.84,1.23-.71,1.26-.98,2.88-.98,6.81,0,.12.09.27.18.27,1.81,0,3.39-.03,3.5-.03"/>
  <path class="cls-1" d="M323.41,134.43c-.09-1.38-.09-1.83-1.75-2.13-.65-.12-.83-.33-.83-.54,0-.24.33-.36.74-.36.77,0,2.26.09,3.24.09,1.46,0,2.14-.09,3.18-.09.48,0,.74.12.74.36s-.3.42-.77.51c-1.72.36-1.69,1.11-1.81,1.92-.15.99-.18,2.94-.18,8.82,0,1.65.03,3.51.09,4.47.09,1.62.24,2.19,2.17,2.58.53.09.77.3.77.51,0,.24-.44.39-.8.39-1.51,0-3.62-.18-4.42-.18-.89,0-1.16.06-2.26.06-.57,0-.77-.21-.77-.42s.3-.39.89-.51c1.49-.33,1.6-.78,1.72-2.19.09-1.05.15-4.17.15-6.72,0-1.86-.03-5.58-.09-6.57"/>
  <path class="cls-1" d="M331.16,139.71c.98-.33,1.9-.78,2.2-.96.36-.24.51-.36.59-.36.12,0,.27.27.27.36,0,.54-.06,1.08-.06,1.65,0,.12.15.15.21.12,1.16-1.11,2.47-1.86,3.39-1.86,1.22,0,1.48.75,1.48,1.02,0,.06-.09.27-.18.42-.33.48-1.04,1.29-1.22,1.38-.06.03-.33-.03-.42-.09-.33-.3-1.04-.66-1.63-.66-.51,0-1.01.09-1.31.42-.21.24-.3.51-.3.66,0,.6.15,6.03.18,6.48.06.87.24,1.44.77,1.53.39.09.92.24,1.37.36.48.15.53.36.53.48,0,.15-.27.27-.71.27-.74,0-1.78-.15-3.5-.15-.89,0-1.25.12-1.96.12-.33,0-.62-.12-.62-.36,0-.18.36-.3.6-.39,1.16-.39,1.25-.69,1.28-2.49v-5.73c0-.3,0-.69-.33-.9-.71-.57-1.01-.69-1.01-.81,0-.09.06-.39.39-.51"/>
  <path class="cls-1" d="M347.46,140.07c.45.63.59,1.23.59,2.49,0,1.17-.12,4.95-.12,5.28,0,1.38.95,1.5,1.19,1.5.12,0,.8-.21,1.13-.45.09-.06.12,0,.18.09.09.09.09.27.09.3,0,.57-1.34,1.86-2.67,1.86-.68,0-1.54-.39-1.9-1.5,0-.03-.12-.15-.18-.12-1.1.78-2.38,1.29-2.67,1.38-.33.12-1.04.18-1.19.18-1.04,0-2.05-1.29-2.05-2.79,0-.54.24-1.11.57-1.53.3-.39.74-.54,1.19-.75.45-.18,2.82-.84,3.48-1.05.68-.21.86-.36.86-.54.03-.27.06-2.1.06-2.46,0-.75-.86-2.01-2.32-2.01-.62,0-1.01.18-1.22.33-.18.09-.27.63-.21,1.23,0,.09-.12.27-.18.33-.3.24-1.78.99-1.93.99-.18,0-.36-.24-.36-.39,0-.87.83-1.71,2.23-2.64.86-.63,2.2-1.14,2.76-1.14,1.48,0,2.23.75,2.67,1.41M345.5,149.01c.18-.12.36-.69.36-.75.06-.72.06-1.74.06-2.34,0-.09-.12-.24-.24-.24-.83,0-2.26.51-3.06.9-.3.21-.59.42-.59,1.14,0,1.32,1.25,1.8,1.87,1.8.45,0,1.04-.21,1.6-.51"/>
  <path class="cls-1" d="M352.51,139.5c.51-.18,1.57-.57,1.99-.87.3-.18.57-.33.71-.33s.3.33.3.45c0,.51-.12,1.23-.12,1.5,0,.15.15.09.18.09,1.19-.81,2.73-1.65,3.98-1.65,1.46,0,2.29.66,2.7,1.14.65.78,1.04,2.16,1.04,3.66,0,.57.06,5.04.09,5.46.06.45.36.84,1.1,1.05.56.15.74.3.74.51s-.42.33-.89.33c-.68,0-1.37-.06-2.2-.06-.74,0-1.66.06-2.05.06-.27,0-.68-.12-.68-.36,0-.21.33-.39.68-.51.71-.27.86-.51.92-1.5.06-.99.09-4.62.09-5.49,0-1.08-.53-1.95-.89-2.22-.33-.24-1.22-.57-1.9-.57-1.31,0-2.08.45-2.64.96-.09.09-.3.45-.3.72,0,.39,0,6.84.03,7.2.03.42.15.66,1.1.93.3.09.53.27.53.45,0,.21-.33.36-.74.36-.36,0-1.19-.03-1.81-.03-1.1,0-1.96.09-2.47.09-.45,0-.77-.12-.77-.39,0-.21.3-.36.62-.45.98-.3,1.16-.6,1.25-1.68.09-.9.15-3.51.15-6.57,0-.33-.06-.63-.71-1.17-.39-.27-.56-.42-.56-.51,0-.21.33-.51.53-.6"/>
  <path class="cls-1" d="M366.77,150.9c-.47,0-.77-.12-.77-.33,0-.18.21-.33.71-.48.68-.18,1.13-.54,1.19-.84.09-.42.12-2.22.12-3.09s.03-4.32-.03-4.68c-.03-.21-.36-.45-1.22-1.08-.18-.12-.24-.21-.24-.33,0-.21.27-.45.59-.51,1.1-.24,2.49-.9,2.94-1.02.12,0,.27.3.27.33,0,.33-.18,4.23-.18,5.94s.03,2.94.06,3.99c.03.96.68,1.02,1.42,1.26.47.15.65.3.65.51,0,.18-.36.3-.68.3-.21,0-1.69-.09-2.32-.09-.98,0-2.02.12-2.52.12M370.54,134.04c0,.81-.83,1.47-1.42,1.47-.21,0-.68-.12-.95-.36-.24-.27-.45-.6-.45-1.11,0-.27.12-.75.35-1.08.3-.27.74-.39,1.16-.39.8,0,1.31.93,1.31,1.47"/>
  <path class="cls-1" d="M381.56,140.07c.45.63.59,1.23.59,2.49,0,1.17-.12,4.95-.12,5.28,0,1.38.95,1.5,1.19,1.5.12,0,.8-.21,1.13-.45.09-.06.12,0,.18.09.09.09.09.27.09.3,0,.57-1.34,1.86-2.67,1.86-.68,0-1.54-.39-1.9-1.5,0-.03-.12-.15-.18-.12-1.1.78-2.38,1.29-2.67,1.38-.33.12-1.04.18-1.19.18-1.04,0-2.05-1.29-2.05-2.79,0-.54.24-1.11.57-1.53.3-.39.74-.54,1.19-.75.45-.18,2.82-.84,3.48-1.05.68-.21.86-.36.86-.54.03-.27.06-2.1.06-2.46,0-.75-.86-2.01-2.32-2.01-.62,0-1.01.18-1.22.33-.18.09-.27.63-.21,1.23,0,.09-.12.27-.18.33-.3.24-1.78.99-1.93.99-.18,0-.36-.24-.36-.39,0-.87.83-1.71,2.23-2.64.86-.63,2.2-1.14,2.76-1.14,1.48,0,2.23.75,2.67,1.41M379.6,149.01c.18-.12.36-.69.36-.75.06-.72.06-1.74.06-2.34,0-.09-.12-.24-.24-.24-.83,0-2.26.51-3.06.9-.3.21-.59.42-.59,1.14,0,1.32,1.25,1.8,1.87,1.8.45,0,1.04-.21,1.6-.51"/>
  <path class="cls-1" d="M386.61,139.5c.51-.18,1.57-.57,1.99-.87.3-.18.57-.33.71-.33s.3.33.3.45c0,.51-.12,1.23-.12,1.5,0,.15.15.09.18.09,1.19-.81,2.73-1.65,3.98-1.65,1.46,0,2.29.66,2.7,1.14.65.78,1.04,2.16,1.04,3.66,0,.57.06,5.04.09,5.46.06.45.36.84,1.1,1.05.56.15.74.3.74.51s-.42.33-.89.33c-.68,0-1.37-.06-2.2-.06-.74,0-1.66.06-2.05.06-.27,0-.68-.12-.68-.36,0-.21.33-.39.68-.51.71-.27.86-.51.92-1.5.06-.99.09-4.62.09-5.49,0-1.08-.53-1.95-.89-2.22-.33-.24-1.22-.57-1.9-.57-1.31,0-2.08.45-2.64.96-.09.09-.3.45-.3.72,0,.39,0,6.84.03,7.2.03.42.15.66,1.1.93.3.09.53.27.53.45,0,.21-.33.36-.74.36-.36,0-1.19-.03-1.81-.03-1.1,0-1.96.09-2.47.09-.45,0-.77-.12-.77-.39,0-.21.3-.36.62-.45.98-.3,1.16-.6,1.25-1.68.09-.9.15-3.51.15-6.57,0-.33-.06-.63-.71-1.17-.39-.27-.56-.42-.56-.51,0-.21.33-.51.53-.6"/>
  <path class="cls-1" d="M405.94,131.43c.8,0,1.34.06,2.2.06,1.16,0,3.18-.09,3.89-.09.53,0,.74.12.74.33s-.24.39-.68.51c-1.72.39-1.93.72-1.99,1.17-.18,1.35-.18,4.38-.18,8.82,0,2.34.09,5.22.21,6.21.06.42.77,1.11,1.01,1.14.77.12,1.87.15,2.85.15.83,0,1.66-.03,2.11-.09.24-.03.59-.03,1.19-.57.42-.42.89-.87,1.69-2.01.33-.54.59-.66.74-.66s.24.33.12.81c-.47,1.47-.68,2.1-.92,3.24-.03.33-.59.51-.71.51-.36,0-3.06-.18-9.09-.18-2.02,0-3.41.15-3.83.15-.57,0-.86-.06-.86-.33,0-.21.24-.45.71-.54,1.63-.33,2.05-.9,2.2-2.07.06-.75.15-5.52.15-9.87,0-1.2,0-3.27-.03-4.26-.03-.66-.18-1.23-1.58-1.5-.59-.12-.83-.36-.83-.57s.24-.36.89-.36"/>
  <path class="cls-1" d="M421.51,150.9c-.47,0-.77-.12-.77-.33,0-.18.21-.33.71-.48.68-.18,1.13-.54,1.19-.84.09-.42.12-2.22.12-3.09s.03-4.32-.03-4.68c-.03-.21-.36-.45-1.22-1.08-.18-.12-.24-.21-.24-.33,0-.21.27-.45.59-.51,1.1-.24,2.49-.9,2.94-1.02.12,0,.27.3.27.33,0,.33-.18,4.23-.18,5.94s.03,2.94.06,3.99c.03.96.68,1.02,1.42,1.26.47.15.65.3.65.51,0,.18-.36.3-.68.3-.21,0-1.69-.09-2.32-.09-.98,0-2.02.12-2.52.12M425.28,134.04c0,.81-.83,1.47-1.42,1.47-.21,0-.68-.12-.95-.36-.24-.27-.45-.6-.45-1.11,0-.27.12-.75.35-1.08.3-.27.74-.39,1.16-.39.8,0,1.31.93,1.31,1.47"/>
  <path class="cls-1" d="M435.53,138.96s.33.15.33.24c0-.09.09.75.09,1.14,0,.27-.56.33-.77.33h-3.24c-.15,0-.27.15-.27.21-.03.6-.06,5.01-.06,6.45,0,.75.18,1.14.51,1.47.56.51,1.19.57,1.81.57.39,0,1.01-.18,1.46-.45.27-.15.33-.18.45-.18.03,0,.18.06.18.33,0,.24-.21.54-.42.75-.8.78-1.84,1.32-3.18,1.32-1.22,0-2.26-.75-2.61-1.41-.33-.51-.39-1.14-.39-1.98,0-1.11.12-5.61.12-6.66,0-.21-.54-.42-1.13-.6-.24-.09-.42-.24-.42-.33,0-.12.09-.24.18-.33,1.04-.84,1.96-1.56,2.38-2.07.36-.42.56-.66.68-.66.15,0,.42.27.42.33v1.41c0,.09.12.24.24.24.65,0,3.53-.12,3.65-.12"/>
  <path class="cls-1" d="M445.86,139.83c.65.63,1.04,1.47,1.04,2.52,0,.18-.24.51-.56.51s-5.4,0-6.77-.03c-.09,0-.21.15-.24.24-.09.24-.15.75-.15,1.05,0,1.17.47,2.55,1.13,3.42.65.9,1.9,1.65,3.33,1.65,1.31,0,2.2-.33,2.7-1.08.12-.18.27-.36.39-.36.18,0,.24.21.24.36,0,.24-.12.57-.21.72-1.04,1.53-2.61,2.25-4.3,2.25-3.21,0-5.34-2.46-5.34-5.97,0-2.4,1.25-4.8,3.56-5.88.77-.36,1.75-.54,2.26-.54,1.04,0,2.2.39,2.94,1.14M439.62,141.69c-.06.15.06.33.12.33.77.03,2.35.03,3.83,0,.71,0,1.01-.15,1.01-.75,0-.84-.89-1.8-1.96-1.8-1.34,0-2.47.84-3,2.22"/>
  <path class="cls-1" d="M449.22,139.71c.98-.33,1.9-.78,2.2-.96.36-.24.51-.36.59-.36.12,0,.27.27.27.36,0,.54-.06,1.08-.06,1.65,0,.12.15.15.21.12,1.16-1.11,2.47-1.86,3.39-1.86,1.22,0,1.49.75,1.49,1.02,0,.06-.09.27-.18.42-.33.48-1.04,1.29-1.22,1.38-.06.03-.33-.03-.42-.09-.33-.3-1.04-.66-1.63-.66-.51,0-1.01.09-1.31.42-.21.24-.3.51-.3.66,0,.6.15,6.03.18,6.48.06.87.24,1.44.77,1.53.39.09.92.24,1.37.36.48.15.53.36.53.48,0,.15-.27.27-.71.27-.74,0-1.78-.15-3.5-.15-.89,0-1.25.12-1.96.12-.33,0-.62-.12-.62-.36,0-.18.36-.3.6-.39,1.16-.39,1.25-.69,1.28-2.49v-5.73c0-.3,0-.69-.33-.9-.71-.57-1.01-.69-1.01-.81,0-.09.06-.39.39-.51"/>
  <path class="cls-1" d="M465.82,140.07c.45.63.59,1.23.59,2.49,0,1.17-.12,4.95-.12,5.28,0,1.38.95,1.5,1.19,1.5.12,0,.8-.21,1.13-.45.09-.06.12,0,.18.09.09.09.09.27.09.3,0,.57-1.34,1.86-2.67,1.86-.68,0-1.54-.39-1.9-1.5,0-.03-.12-.15-.18-.12-1.1.78-2.38,1.29-2.67,1.38-.33.12-1.04.18-1.19.18-1.04,0-2.05-1.29-2.05-2.79,0-.54.24-1.11.57-1.53.3-.39.74-.54,1.19-.75.45-.18,2.82-.84,3.48-1.05.68-.21.86-.36.86-.54.03-.27.06-2.1.06-2.46,0-.75-.86-2.01-2.32-2.01-.62,0-1.01.18-1.22.33-.18.09-.27.63-.21,1.23,0,.09-.12.27-.18.33-.3.24-1.78.99-1.93.99-.18,0-.36-.24-.36-.39,0-.87.83-1.71,2.23-2.64.86-.63,2.2-1.14,2.76-1.14,1.48,0,2.23.75,2.67,1.41M463.86,149.01c.18-.12.36-.69.36-.75.06-.72.06-1.74.06-2.34,0-.09-.12-.24-.24-.24-.83,0-2.26.51-3.06.9-.3.21-.59.42-.59,1.14,0,1.32,1.25,1.8,1.87,1.8.45,0,1.04-.21,1.6-.51"/>
  <path class="cls-1" d="M470.22,139.71c.98-.33,1.9-.78,2.2-.96.36-.24.51-.36.59-.36.12,0,.27.27.27.36,0,.54-.06,1.08-.06,1.65,0,.12.15.15.21.12,1.16-1.11,2.47-1.86,3.39-1.86,1.22,0,1.49.75,1.49,1.02,0,.06-.09.27-.18.42-.33.48-1.04,1.29-1.22,1.38-.06.03-.33-.03-.42-.09-.33-.3-1.04-.66-1.63-.66-.51,0-1.01.09-1.31.42-.21.24-.3.51-.3.66,0,.6.15,6.03.18,6.48.06.87.24,1.44.77,1.53.39.09.92.24,1.37.36.48.15.53.36.53.48,0,.15-.27.27-.71.27-.74,0-1.78-.15-3.5-.15-.89,0-1.25.12-1.96.12-.33,0-.62-.12-.62-.36,0-.18.36-.3.6-.39,1.16-.39,1.25-.69,1.28-2.49v-5.73c0-.3,0-.69-.33-.9-.71-.57-1.01-.69-1.01-.81,0-.09.06-.39.39-.51"/>
  <path class="cls-1" d="M478.53,138.96c.74,0,1.46.12,2.32.12s1.72-.06,2.08-.06c.24,0,.65.09.65.33,0,.21-.21.39-.68.51-.83.24-.92.39-.62,1.17.45,1.44,2.35,6.15,2.58,6.51.03.06.15.06.24-.12.36-.81,2.2-5.67,2.35-6.15.27-.84.03-1.2-1.13-1.47-.36-.09-.62-.3-.62-.42,0-.27.39-.33.74-.33.56,0,1.37.03,1.75.03.41,0,1.1-.12,1.87-.12.39,0,.59.06.59.27,0,.27-.3.39-.65.51-.62.21-1.01.57-1.45,1.56-.98,2.25-2.58,6.27-3.27,8.01-1.04,2.73-2.14,5.82-3.09,8.37-.12.39-.68.84-1.54.84-1.01,0-1.34-.84-1.34-1.47,0-.51.48-1.32,1.31-1.32.15,0,.77.03,1.07.03.27,0,.33-.21.45-.51.27-.48,1.22-3.12,1.42-3.87.09-.42.21-.81.09-1.08-.09-.21-.33-.9-.45-1.23-.62-1.77-2.46-6.24-3.39-8.13-.27-.54-.42-.84-1.4-1.17-.42-.15-.59-.27-.59-.45,0-.12.09-.36.71-.36"/>
  <path class="cls-1" d="M511.2,131.43c1.07-.06,1.6-.24,2.02-.54.21-.12.3-.18.42-.18.15,0,.27.27.12.69-.3.93-.47,1.89-.65,3.45-.03.27-.27.57-.5.57-.21,0-.33-.21-.42-.96-.18-1.56-.56-1.71-2.41-1.8-.51-.03-3.8-.03-4.16.06-.15.03-.27.33-.27.39v7.35c0,3.48,0,6.33.12,7.44.15,1.35.3,1.71,2.14,2.13.39.09.8.33.8.54,0,.33-.53.36-.83.36-.24,0-2.08-.15-3.39-.15-1.48,0-3,.21-3.39.21-.59,0-.89-.18-.89-.36,0-.21.3-.45.56-.51,2.08-.48,2.14-.99,2.23-3.24.06-1.77.21-7.89.21-10.2v-3.57c0-.24-.15-.39-.24-.39-.59-.09-3.21-.15-3.68-.15-1.13,0-1.75.18-2.2.69-.12.09-.48.57-.98,1.56-.27.63-.45.6-.56.6-.18,0-.3-.39-.3-.69,0-.57.56-2.22.56-3.99,0-.18.27-.48.45-.48.15,0,.15.21.47.48.09.09.56.54,1.01.57.77.09,3.15.18,6.95.18,1.54,0,5.58-.03,6.8-.06"/>
  <path class="cls-1" d="M514.88,139.71c.98-.33,1.9-.78,2.2-.96.36-.24.51-.36.59-.36.12,0,.27.27.27.36,0,.54-.06,1.08-.06,1.65,0,.12.15.15.21.12,1.16-1.11,2.47-1.86,3.39-1.86,1.22,0,1.48.75,1.48,1.02,0,.06-.09.27-.18.42-.33.48-1.04,1.29-1.22,1.38-.06.03-.33-.03-.42-.09-.33-.3-1.04-.66-1.63-.66-.51,0-1.01.09-1.31.42-.21.24-.3.51-.3.66,0,.6.15,6.03.18,6.48.06.87.24,1.44.77,1.53.39.09.92.24,1.37.36.48.15.53.36.53.48,0,.15-.27.27-.71.27-.74,0-1.78-.15-3.5-.15-.89,0-1.25.12-1.96.12-.33,0-.62-.12-.62-.36,0-.18.36-.3.6-.39,1.16-.39,1.25-.69,1.28-2.49v-5.73c0-.3,0-.69-.33-.9-.71-.57-1.01-.69-1.01-.81,0-.09.06-.39.39-.51"/>
  <path class="cls-1" d="M531.6,140.07c.45.63.59,1.23.59,2.49,0,1.17-.12,4.95-.12,5.28,0,1.38.95,1.5,1.19,1.5.12,0,.8-.21,1.13-.45.09-.06.12,0,.18.09.09.09.09.27.09.3,0,.57-1.34,1.86-2.67,1.86-.68,0-1.54-.39-1.9-1.5,0-.03-.12-.15-.18-.12-1.1.78-2.38,1.29-2.67,1.38-.33.12-1.04.18-1.19.18-1.04,0-2.05-1.29-2.05-2.79,0-.54.24-1.11.57-1.53.3-.39.74-.54,1.19-.75.45-.18,2.82-.84,3.48-1.05.68-.21.86-.36.86-.54.03-.27.06-2.1.06-2.46,0-.75-.86-2.01-2.32-2.01-.62,0-1.01.18-1.22.33-.18.09-.27.63-.21,1.23,0,.09-.12.27-.18.33-.3.24-1.78.99-1.93.99-.18,0-.36-.24-.36-.39,0-.87.83-1.71,2.23-2.64.86-.63,2.2-1.14,2.76-1.14,1.48,0,2.23.75,2.67,1.41M529.64,149.01c.18-.12.36-.69.36-.75.06-.72.06-1.74.06-2.34,0-.09-.12-.24-.24-.24-.83,0-2.26.51-3.06.9-.3.21-.59.42-.59,1.14,0,1.32,1.25,1.8,1.87,1.8.45,0,1.04-.21,1.6-.51"/>
  <path class="cls-1" d="M544.02,138.78c.12.03.21-.18.24-.33.15-.81.06-5.4-.03-6.12-.03-.15-.03-.51-1.4-1.23-.27-.15-.3-.21-.3-.27,0-.12.33-.48.51-.51.68-.09,2.26-.54,3.03-.84.18-.06.27-.09.39-.09.09,0,.27.21.24.48-.15,1.59-.27,2.67-.27,11.85,0,5.79.06,6.27.06,6.84.06,1.11.3,1.23.48,1.23.33,0,1.31-.21,1.6-.24.12,0,.18.15.18.18,0,.21-.36.72-.51.75-.56.09-2.11.39-2.67.6-.68.24-.92.3-1.07.3-.12,0-.33-.24-.33-.39,0-.27.06-.81.06-1.23,0-.12-.12-.18-.18-.18-1.37,1.23-2.88,1.5-3.86,1.5-1.42,0-2.79-.66-3.71-1.65-.95-1.08-1.42-2.61-1.42-4.11,0-2.94,1.69-4.65,3.15-5.52,1.37-.84,3.12-1.14,3.92-1.14,1.07,0,1.54.06,1.9.12M538.7,140.7c-.56.57-1.25,2.1-1.25,3.78,0,2.4,1.66,5.16,4.22,5.16.95,0,1.63-.33,2.17-.72.06-.06.44-1.02.47-1.98.03-1.92,0-3.57-.09-4.98-.03-.24-.3-.78-.65-1.14-.83-.84-1.96-1.17-2.55-1.17-.95,0-1.78.51-2.32,1.05"/>
  <path class="cls-1" d="M550.05,150.9c-.47,0-.77-.12-.77-.33,0-.18.21-.33.71-.48.68-.18,1.13-.54,1.19-.84.09-.42.12-2.22.12-3.09s.03-4.32-.03-4.68c-.03-.21-.36-.45-1.22-1.08-.18-.12-.24-.21-.24-.33,0-.21.27-.45.59-.51,1.1-.24,2.49-.9,2.94-1.02.12,0,.27.3.27.33,0,.33-.18,4.23-.18,5.94s.03,2.94.06,3.99c.03.96.68,1.02,1.42,1.26.47.15.65.3.65.51,0,.18-.36.3-.68.3-.21,0-1.69-.09-2.32-.09-.98,0-2.02.12-2.52.12M553.82,134.04c0,.81-.83,1.47-1.42,1.47-.21,0-.68-.12-.95-.36-.24-.27-.45-.6-.45-1.11,0-.27.12-.75.35-1.08.3-.27.74-.39,1.16-.39.8,0,1.31.93,1.31,1.47"/>
  <path class="cls-1" d="M564.07,138.96s.33.15.33.24c0-.09.09.75.09,1.14,0,.27-.56.33-.77.33h-3.24c-.15,0-.27.15-.27.21-.03.6-.06,5.01-.06,6.45,0,.75.18,1.14.51,1.47.56.51,1.19.57,1.81.57.39,0,1.01-.18,1.46-.45.27-.15.33-.18.45-.18.03,0,.18.06.18.33,0,.24-.21.54-.42.75-.8.78-1.84,1.32-3.18,1.32-1.22,0-2.26-.75-2.61-1.41-.33-.51-.39-1.14-.39-1.98,0-1.11.12-5.61.12-6.66,0-.21-.54-.42-1.13-.6-.24-.09-.42-.24-.42-.33,0-.12.09-.24.18-.33,1.04-.84,1.96-1.56,2.38-2.07.36-.42.56-.66.68-.66.15,0,.42.27.42.33v1.41c0,.09.12.24.24.24.65,0,3.53-.12,3.65-.12"/>
  <path class="cls-1" d="M566.24,150.9c-.47,0-.77-.12-.77-.33,0-.18.21-.33.71-.48.68-.18,1.13-.54,1.19-.84.09-.42.12-2.22.12-3.09s.03-4.32-.03-4.68c-.03-.21-.36-.45-1.22-1.08-.18-.12-.24-.21-.24-.33,0-.21.27-.45.59-.51,1.1-.24,2.49-.9,2.94-1.02.12,0,.27.3.27.33,0,.33-.18,4.23-.18,5.94s.03,2.94.06,3.99c.03.96.68,1.02,1.42,1.26.47.15.65.3.65.51,0,.18-.36.3-.68.3-.21,0-1.69-.09-2.32-.09-.98,0-2.02.12-2.52.12M570.01,134.04c0,.81-.83,1.47-1.42,1.47-.21,0-.68-.12-.95-.36-.24-.27-.45-.6-.45-1.11,0-.27.12-.75.35-1.08.3-.27.74-.39,1.16-.39.8,0,1.31.93,1.31,1.47"/>
  <path class="cls-1" d="M585.09,144.78c0,2.49-1.49,4.44-2.58,5.16-1.19.87-2.35,1.2-3.68,1.2s-2.85-.63-3.95-1.56c-1.28-1.05-2.2-3.09-2.2-4.59,0-2.28.95-3.72,2.08-4.68.92-.81,2.41-1.65,4.4-1.65,2.94,0,5.94,2.34,5.94,6.12M576.66,140.43c-.77.72-1.45,2.28-1.45,3.84,0,.99.12,1.92.35,2.67.74,2.25,2.44,3.33,3.86,3.33.33,0,.98-.15,1.81-.99.74-.81,1.34-2.67,1.34-3.96,0-1.56-.36-3.27-1.48-4.59-.65-.72-1.72-1.17-2.49-1.17-.62,0-1.31.33-1.93.87"/>
  <path class="cls-1" d="M587.71,139.5c.51-.18,1.57-.57,1.99-.87.3-.18.57-.33.71-.33s.3.33.3.45c0,.51-.12,1.23-.12,1.5,0,.15.15.09.18.09,1.19-.81,2.73-1.65,3.98-1.65,1.46,0,2.29.66,2.7,1.14.65.78,1.04,2.16,1.04,3.66,0,.57.06,5.04.09,5.46.06.45.36.84,1.1,1.05.56.15.74.3.74.51s-.42.33-.89.33c-.68,0-1.37-.06-2.2-.06-.74,0-1.66.06-2.05.06-.27,0-.68-.12-.68-.36,0-.21.33-.39.68-.51.71-.27.86-.51.92-1.5.06-.99.09-4.62.09-5.49,0-1.08-.53-1.95-.89-2.22-.33-.24-1.22-.57-1.9-.57-1.31,0-2.08.45-2.64.96-.09.09-.3.45-.3.72,0,.39,0,6.84.03,7.2.03.42.15.66,1.1.93.3.09.53.27.53.45,0,.21-.33.36-.74.36-.36,0-1.19-.03-1.81-.03-1.1,0-1.96.09-2.47.09-.45,0-.77-.12-.77-.39,0-.21.3-.36.62-.45.98-.3,1.16-.6,1.25-1.68.09-.9.15-3.51.15-6.57,0-.33-.06-.63-.71-1.17-.39-.27-.56-.42-.56-.51,0-.21.33-.51.53-.6"/>
  <path class="cls-1" d="M607.64,138.84c.33.06.89.3.95.33.06.03.24.24.24.42,0,.54.09,1.56.09,1.77,0,.27-.12.54-.36.54-.12,0-.3-.18-.45-.51-.65-1.41-1.4-2.01-2.38-2.01-1.22,0-1.78,1.23-1.78,1.86,0,1.02.95,1.8,2.94,2.91,1.66.99,2.32,2.01,2.32,3.36s-.98,2.4-1.72,2.94c-.53.36-1.58.69-2.49.69s-2.38-.24-2.88-.66c-.09-.15-.45-1.41-.45-2.28,0-.33.06-.63.24-.63.24,0,.45.36.62.69.83,1.53,1.63,2.13,2.7,2.13.39,0,.86-.21,1.19-.45.45-.36.68-1.08.68-1.65,0-.81-.42-1.44-1.34-2.01-.71-.51-.89-.66-1.81-1.26-.89-.57-1.84-1.62-1.84-3.03,0-1.02.5-2.01,1.63-2.7.56-.36,1.37-.63,2.38-.63.57,0,1.19.09,1.52.18"/>
  <path class="cls-1" d="M61.33,163.85c.5,0,.9-.89.9-1.99s-.4-1.99-.9-1.99-.9.89-.9,1.99.4,1.99.9,1.99"/>
  <path class="cls-1" d="M61.33,81.65c-.84,0-2.31.43-2.31,1.96,0,1.07,2.01,3.26,2.29,3.58l.02.02.02-.02c.28-.32,2.29-2.51,2.29-3.58,0-1.53-1.42-1.96-2.31-1.96M61.34,85.58h0s0,0,0,0c-.14-.15-1.12-1.23-1.12-1.75,0-.75.72-.96,1.13-.96.43,0,1.13.21,1.13.96,0,.52-.99,1.6-1.12,1.75"/>
  <path class="cls-1" d="M114.61,100.58c-.72,0-1.37.31-1.83.81-.29-.6-.45-1.32-.38-2.15.1-1.16.21-2.87.51-4.8.56-3.56-.21-10.15-3.31-16.19-3.01-5.87-8.33-12.55-17.22-13.15-6.54-6.68-13.93-5.06-20.83-7.63-.72-.27-1.32-.58-1.85-.93,1.4-2.26,2.27-4.48,2.47-5.15.76-2.5,3.02-2.94,4.97-.54.21.26.62.1.6-.23-.2-4.69-4.79-6.03-6.61-9.29-1.07-1.9-.67-3.31-5.7-8.48-3.16-3.25-3.69-8.3-3.78-10.11.22-.12.38-.34.38-.61,0-.39-.32-.7-.7-.7s-.7.32-.7.7c0,.27.15.49.37.61-.09,1.8-.62,6.86-3.78,10.11-5.03,5.17-4.64,6.58-5.7,8.48-1.82,3.26-6.41,4.6-6.61,9.29-.01.33.39.49.6.23,1.96-2.4,4.21-1.95,4.98.54.2.67,1.07,2.89,2.47,5.15-.53.35-1.13.67-1.85.93-6.9,2.57-14.29.95-20.83,7.63-8.89.61-14.21,7.29-17.22,13.15-3.1,6.04-3.87,12.63-3.31,16.19.3,1.93.41,3.64.51,4.8.07.83-.09,1.55-.38,2.15-.59-.63-1.49-.97-2.47-.73-.88.22-1.59.94-1.79,1.82-.37,1.63.86,3.08,2.43,3.08.6,0,1.14-.22,1.57-.57,2.21-1.51,1.74-5.59,1.58-8.97-.27-5.82.29-11.19,4.71-18.18,4.22-6.66,10.32-9.49,12.63-10.37-.4.71-.77,1.49-1.09,2.36-10.62,5.16-13.53,18.64-13.96,22.26-.43,3.62-.19,11.29-.97,13.19-.8,1.95-3.23,1.61-4.49,1.64-.45.01-.59.6-.21.84.84.53,2.37,1.22,4.59,1.19,2.65-.04,7.19-2.22,9.79-.31,2.3,1.69,2.26,5.13,2.23,5.89-.35-.07-.72-.11-1.1-.11-2.79,0-5.04,2.09-5.04,4.68,0,2.19,1.63,4.68,5.04,4.68,2.78,0,5.05-2.35,5.04-5.79-.03-9.81-4.28-13.11-4.28-19.51,0-1.73.81-5.62,3.36-9.46,2.55-3.84,6.46-9.42,6.64-12.28.26-4.15-2.09-6.1-2.09-6.1,3.24-5.28,7.45-8.61,18.61-10.34,1.9-.3,3.09-1.08,3.77-1.72.64.8,1.34,1.54,2.11,2.15-1.48,1.94-7.89,8.38-13.46,7.45-.36-.06-.67.23-.64.59.14,2.09.17,8.08-3.67,12.14-4.71,4.99-8.86,8.5-8.86,16.05s1.4,13.04,1.52,14.62c.23,3.07-.26,3.23-.53,3.9-.17.44.39.97.82.43.23-.29.91-1.47.98-4.82.09-4.03-.24-10.14,1.92-12.9,0,0,1.04,3.35,3.31.64,0,0,3.04,3.55,5.51,3.55s4.71-1.65,5.82-1.96c.9-.25,1.74-.25,2.15-.22.12,0,.19.14.13.25-.33.52-1.26,1.8-2.74,2.05-1.88.32-5.39.72-7.31,2.12-1.92,1.4-3.13,4.21-3.13,4.21,0,0-.54-.97-1.82-.97s-1.96,1.08-1.96,2.14c0,1.11.96,1.83,2.32,1.83s2.08-1.66,3.39-3.18c1.32-1.52,2.99-3.67,6.19-4.35s5.21-1.54,6.91-4.03l.62.59s-3.74,3.4-4.46,5.52c0,0-3.27-.68-5.03.72-1.76,1.4-2,3.59-2,3.59,0,0-6.96-.29-5.32,9.94-3.83,2.21-6.58,4.89-6.58,12.35,0,8.51,6.75,14.7,15.89,15.6,0,0,3.4,2.65,7.64,2.68,0,.09,0,.18.03.27.21.67.86,2.38,1.72,3.72-.65.39-1.7.76-3.33.76-1.84,0-3.26-1.79-4.63-3.52-.21-.27-.42-.53-.62-.77-.52-.63-1.27-.99-2.07-.99s-1.62.39-2.13,1.03c-.51.65-.7,1.48-.51,2.3.41,1.76,1.48,4.7,3.14,7.21,1.91,2.89,4.27,4.69,6.84,5.25.54,1.35,1.62,3.67,3.57,6.63.3.46.57.93.8,1.4.84,2.01,1.1,2.61,1.62,5.55.43,2.39.8,4.84,1.62,7.2.4,1.15.48,3.09.48,4.55-.99.29-1.71,1.2-1.71,2.28,0,1.32,1.07,2.39,2.39,2.39s2.39-1.07,2.39-2.39c0-1.08-.73-1.99-1.71-2.28,0-1.49.03-3.4.43-4.55.82-2.35,1.17-4.83,1.62-7.2.55-2.94.84-3.54,1.68-5.55.24-.47.5-.94.8-1.4,1.96-2.96,3.03-5.27,3.58-6.63,2.57-.56,4.92-2.36,6.84-5.25,1.66-2.5,2.73-5.45,3.14-7.21.19-.81,0-1.65-.51-2.3-.51-.65-1.31-1.03-2.13-1.03s-1.56.36-2.07.99c-.2.24-.4.5-.62.77-1.37,1.73-2.79,3.52-4.64,3.52-1.63,0-2.68-.37-3.33-.76.86-1.33,1.51-3.05,1.72-3.72.03-.09.03-.18.03-.27,4.24-.04,7.64-2.68,7.64-2.68,9.14-.89,15.89-7.08,15.89-15.6,0-7.46-2.75-10.14-6.58-12.35,1.63-10.23-5.32-9.94-5.32-9.94,0,0-.24-2.2-2-3.59-1.76-1.4-5.03-.72-5.03-.72-.72-2.12-4.46-5.52-4.46-5.52l.63-.59c1.7,2.49,3.71,3.35,6.91,4.03,3.19.68,4.87,2.83,6.19,4.35,1.32,1.52,2.04,3.18,3.39,3.18s2.32-.72,2.32-1.83-.68-2.14-1.96-2.14-1.82.97-1.82.97c0,0-1.21-2.81-3.13-4.21-1.92-1.4-5.43-1.8-7.31-2.12-1.48-.25-2.42-1.53-2.74-2.05-.07-.11,0-.24.13-.25.41-.02,1.25-.03,2.15.22,1.11.31,3.35,1.96,5.82,1.96s5.51-3.55,5.51-3.55c2.27,2.71,3.31-.64,3.31-.64,2.16,2.76,1.83,8.87,1.92,12.9.07,3.35.75,4.53.98,4.82.43.54,1,0,.82-.43-.27-.67-.76-.83-.53-3.9.12-1.58,1.52-7.08,1.52-14.62s-4.15-11.06-8.86-16.05c-3.83-4.06-3.81-10.05-3.66-12.14.02-.36-.29-.65-.64-.59-5.57.93-11.98-5.51-13.46-7.45.77-.61,1.48-1.35,2.11-2.15.69.64,1.88,1.43,3.77,1.72,11.16,1.73,15.37,5.06,18.61,10.34,0,0-2.36,1.95-2.09,6.1.18,2.86,4.1,8.44,6.64,12.28,2.55,3.84,3.36,7.73,3.36,9.46,0,6.41-4.25,9.7-4.28,19.51-.01,3.44,2.26,5.79,5.04,5.79,3.41,0,5.04-2.49,5.04-4.68,0-2.58-2.26-4.68-5.04-4.68-.38,0-.74.04-1.1.11-.04-.76-.08-4.2,2.23-5.89,2.6-1.9,7.14.28,9.79.31,2.22.03,3.76-.67,4.59-1.19.38-.24.24-.83-.21-.84-1.26-.03-3.69.3-4.49-1.64-.78-1.9-.54-9.57-.97-13.19-.43-3.62-3.34-17.1-13.96-22.26-.31-.87-.68-1.65-1.09-2.36,2.31.88,8.41,3.71,12.63,10.37,4.43,6.98,4.99,12.36,4.71,18.18-.16,3.38-.62,7.46,1.58,8.97.57.47,1.34.7,2.17.5.9-.22,1.63-.95,1.83-1.86.35-1.62-.87-3.06-2.43-3.06M51.39,92.25c-2.16-3.96-6.48-5.2-6.48-5.2,0,0,3.44-3.59,3.11-14.11,0,0,4.1-1.77,6.17-5.44,1.41-2.49,2.94-4.66,3.78-5.81,2.51,2.48,2.92,5.24,2.04,6.71-.98,1.67-3.41,2.15-4.05,2.51-.64.36-2.37,1.27-2.34,3.42,0,0-6.91,1.39-2.52,8.51,0,0-.96,4.02,2.98,7.36,2.62,2.22,4.37,4.02,5.25,4.98.47.51.45,1.32-.07,1.78-.1.08-.2.16-.32.24-1.49.9-2.46,1.41-2.9,1.81,0,0-1.57-1.06-4.68-6.77M61.99,107.47s-.02,0-.03,0c-.06-.01-.12-.03-.18-.04-.14-.03-.29-.05-.44-.05h0c-.15,0-.3.02-.44.05-.06.01-.12.02-.18.04,0,0-.02,0-.03,0-.76-2.33-2.21-4.82-3.21-6.36,2.06-1.36,2.74-1.81,3.86-1.81s1.81.44,3.86,1.81c-.99,1.54-2.45,4.03-3.21,6.36M62.79,110.12c0,.81-.65,1.46-1.46,1.46-.81,0-1.46-.66-1.46-1.46s.65-1.46,1.46-1.46c.81,0,1.46.66,1.46,1.46M57.81,85.6c-.92-1.2-1.82-2.79-1.82-3.97,0-.94.55-2.05,1.99-2.05,1.91,0,2.46,1.22,3.34,1.22s1.45-1.22,3.36-1.22c1.44,0,1.99,1.11,1.99,2.05,0,1.18-.9,2.77-1.82,3.97-1.04,1.36-2.85,3.74-3.52,4.62-.67-.88-2.48-3.26-3.52-4.62M61.22,78.53c-.73,0-1.32-1.29-1.32-2.89s.59-2.89,1.32-2.89,1.32,1.29,1.32,2.89-.59,2.89-1.32,2.89M61.33,65.21c-.22-1.57-.74-3.4-1.91-4.99.46-.47,1.13-1.06,1.91-1.43.78.38,1.45.96,1.91,1.43-1.17,1.59-1.69,3.42-1.91,4.99M62.22,54.4c-.04-.07-.55-1.07-.89-1.07s-.85.99-.89,1.07c-.25.51-1.25,1.82-2.35,2.44-.29.16-.64-.09-.58-.41.18-.9.57-2.45,1.27-3.37.75-.99,1.65-1.67,2.54-1.67s1.79.68,2.54,1.67c.7.92,1.09,2.48,1.27,3.37.07.33-.28.58-.57.41-1.1-.61-2.09-1.93-2.35-2.44M49.24,146.35c-4.61-3.27-3.33-6.76-2.51-7.36,2.56-1.89,6.22,2.91,7.66,4.9,1.52,2.11,3.47,3.82,4.51,4.66.25.2.11.61-.22.62-1.77.04-5.76-.2-9.44-2.82M67.27,152.23c-.26.84-.78,2.07-1.75,3.19.6.58,1.95,1.5,4.6,1.5,2.29,0,3.92-2.06,5.36-3.88.21-.26.41-.52.61-.76.34-.41.84-.65,1.36-.65s1.07.26,1.41.68c.34.42.46.97.33,1.51-.4,1.69-1.42,4.51-3.01,6.91-1.9,2.87-4.23,4.58-6.74,4.94-.44,1.2-1.5,3.65-3.67,6.93-1.36,2.05-2.04,4.25-2.38,6.07v.02s-.03.16-.08.44c-.01.08-.03.16-.04.24-.22,1.33-.76,4.4-1.44,7.03,0,0-.09.45-.5.45s-.5-.45-.5-.45c-.68-2.62-1.22-5.7-1.44-7.03-.01-.08-.03-.16-.04-.24-.05-.28-.07-.44-.07-.44v-.02c-.35-1.82-1.03-4.02-2.39-6.07-2.17-3.28-3.22-5.74-3.67-6.93-2.51-.37-4.85-2.08-6.74-4.94-1.59-2.4-2.61-5.22-3.01-6.91-.13-.54,0-1.09.33-1.51.34-.43.87-.68,1.41-.68s1.02.24,1.36.65c.2.24.4.49.61.76,1.44,1.82,3.07,3.88,5.36,3.88,2.65,0,4.01-.91,4.6-1.5-.97-1.12-1.49-2.36-1.75-3.19l-.38-1c.4-.03.8-.08,1.2-.17,0,0,.39,2.51,2.36,4.27,0,0-1.27,2.68-6.04,2.68-3.2,0-5.2-3.08-6.81-5.03-.46-.56-1.36-.11-1.2.6.69,2.93,3.77,10.86,9.49,11.08,0,0,.82,2.89,3.77,7.35,2.66,4.02,2.9,9.13,2.88,10.76,0,.36.28.64.64.64s.64-.29.64-.64c-.01-1.62.23-6.74,2.88-10.76,2.95-4.46,3.77-7.35,3.77-7.35,5.73-.23,8.81-8.15,9.49-11.08.17-.71-.73-1.16-1.2-.6-1.61,1.95-3.61,5.03-6.81,5.03-4.77,0-6.04-2.68-6.04-2.68,1.97-1.76,2.36-4.27,2.36-4.27.41.09.81.13,1.2.17l-.38,1ZM61.33,157.82c.37.62,1.13,1.68,2.25,2.35,0,0-.63,1.77-.24,2.99,0,0-2.09,2.48-2.01,4.05h0c.08-1.57-2.01-4.05-2.01-4.05.39-1.22-.24-2.99-.24-2.99,1.12-.67,1.88-1.73,2.25-2.35M60.5,151.59c0-.87.32-1.57.72-1.57s.72.7.72,1.57-.32,1.57-.72,1.57-.72-.7-.72-1.57M73.42,146.35c-3.68,2.61-7.67,2.86-9.44,2.82-.33,0-.47-.41-.22-.62,1.04-.84,2.99-2.55,4.51-4.66,1.43-2,5.1-6.79,7.66-4.9.82.6,2.09,4.09-2.51,7.36M69.02,109.36c-.22.42-.05.94.37,1.15,1.87.92,6.27,3.54,8.27,8.71,2.58,6.65-1.99,8.2-1.99,8.2.87,5.18-3.61,5.4-5.51,5.01-.33-.07-.59.3-.48.61,1.12,3.26.46,5.18-.9,6.74-3.47,3.96-6.57,6.38-7.46,7.04-.89-.66-3.99-3.08-7.46-7.04-1.36-1.55-2.02-3.48-.9-6.74.11-.32-.15-.68-.48-.61-1.9.38-6.38.17-5.51-5.01,0,0-4.57-1.55-1.99-8.2,2-5.16,6.4-7.79,8.27-8.71.43-.21.6-.73.37-1.15-.69-1.31-1.49-4.13,2.06-6.99,2.26,2.31,3.13,5.02,3.42,6.15-.01.01-.02.03-.03.05-.02.03-.04.06-.06.09-.07.12-.14.23-.2.36-.01.03-.02.05-.03.08-.13.32-.21.66-.21,1.03,0,.75.31,1.44.8,1.93-.17.89-.74,2.45-2.55,3.02-2.61.82-2.68,2.09-2.91,2.68-.21.57-1.5,2.35-4.2,1.11-.21-.1-.46.05-.47.28-.1,1.62.03,6.73,5.34,7.92,0,0,.22,2.84,3.05,4.54,0,0-2.47,4.54,3.68,8.57,6.15-4.02,3.69-8.57,3.69-8.57,2.83-1.7,3.05-4.54,3.05-4.54,5.31-1.19,5.43-6.3,5.34-7.92-.01-.23-.26-.38-.47-.28-2.69,1.24-3.98-.54-4.2-1.11-.22-.6-.3-1.86-2.91-2.68-1.82-.57-2.38-2.13-2.55-3.02.49-.5.8-1.18.8-1.93,0-.37-.08-.71-.21-1.03-.01-.03-.02-.05-.03-.08-.06-.13-.12-.24-.2-.36-.02-.03-.04-.06-.06-.09,0-.01-.02-.03-.03-.05.28-1.14,1.16-3.84,3.42-6.15,3.55,2.86,2.75,5.68,2.06,6.99M68.47,67.5c2.08,3.67,6.17,5.44,6.17,5.44-.33,10.52,3.11,14.11,3.11,14.11,0,0-4.32,1.24-6.48,5.2-3.11,5.7-4.68,6.77-4.68,6.77-.44-.4-1.4-.91-2.9-1.81-.12-.07-.22-.15-.32-.24-.52-.46-.54-1.27-.07-1.78.88-.96,2.63-2.76,5.25-4.98,3.94-3.34,2.98-7.36,2.98-7.36,4.39-7.12-2.52-8.51-2.52-8.51.03-2.15-1.7-3.06-2.34-3.42-.64-.36-3.06-.84-4.05-2.51-.87-1.48-.47-4.23,2.04-6.71.84,1.15,2.38,3.32,3.79,5.81M67.77,54.57c-1.47-2.26-1.51-5.07-2.51-7.19-.89-1.89-2.3-2.74-3.31-3.12-.23-.09-.41-.13-.62-.13s-.39.04-.62.13c-1.02.38-2.43,1.23-3.31,3.12-.99,2.12-1.03,4.93-2.51,7.19-1.33-1.74-2.49-3.3-3.44-4.43-.58-.69-1.11-1.25-1.57-1.7-.2-.19-.15-.53.11-.65.42-.2.86-.38,1.3-.53,2.68-.92,3.34-.91,5.18-3.01,1.11-1.26.73-1.88,3.23-3.5.72-.47,1.25-1.02,1.63-1.54.38.52.91,1.07,1.63,1.54,2.5,1.62,2.12,2.23,3.23,3.5,1.84,2.1,2.5,2.1,5.18,3.01.45.15.88.33,1.3.53.25.12.31.45.11.65-.46.45-.99,1.01-1.57,1.7-.95,1.13-2.11,2.68-3.44,4.43"/>
  <path class="cls-1" d="M73.71,141.25c-.92-.68-2.23,1.04-2.74,1.76-.55.76-1.32,1.64-1.63,2-.19.22-.06.43.26.37.94-.16,1.89-.56,3.21-1.5,1.65-1.17,1.19-2.42.9-2.64"/>
  <path class="cls-1" d="M51.7,143.01c-.51-.71-1.83-2.43-2.74-1.76-.29.22-.75,1.47.9,2.64,1.32.94,2.26,1.33,3.21,1.5.32.06.45-.15.26-.38-.31-.36-1.09-1.25-1.63-2"/>
  <path class="cls-1" d="M41.82,52.46c.72,0,1.39-.4,1.75-1.11.26-.52.27-1.34.39-1.98.02-.13.05-.25.08-.38.61-2.45,2.35-3.99,3.91-5.38,1.04-.92,2.02-1.79,2.62-2.86.22-.4.38-.79.55-1.23.6-1.52,1.35-3.4,5.32-7.48,2.77-2.85,3.31-8.04,3.46-9.2.22-1.78,1.27-3.43,1.43-3.68.17.25,1.21,1.9,1.43,3.68.14,1.16.69,6.35,3.46,9.2,3.96,4.07,4.71,5.96,5.32,7.48.18.45.33.83.55,1.23.6,1.07,1.58,1.94,2.62,2.86,1.56,1.39,3.3,2.92,3.91,5.38.03.12.06.25.08.38.11.64.12,1.46.39,1.98.36.71,1.03,1.11,1.75,1.11,1.09,0,1.97-.88,1.97-1.97s-.88-1.97-1.97-1.97c-.49,0-.93.18-1.28.48-.63-2.85-2.6-4.61-4.24-6.05-.98-.87-1.91-1.69-2.43-2.62-.19-.35-.33-.69-.5-1.12-.63-1.59-1.42-3.57-5.51-7.78-.73-.75-3.33-3.16-1.46-11.77,1.06-4.9-.91-8.09-2.17-10.65-.93-1.91-1.58-4.48-1.85-5.67,0,0-.02-.13-.07-.13s-.07.13-.07.13c-.27,1.19-.92,3.76-1.85,5.67-1.25,2.56-3.23,5.75-2.16,10.65,1.87,8.6-.73,11.01-1.47,11.77-4.09,4.2-4.88,6.19-5.51,7.78-.17.43-.31.78-.5,1.12-.52.93-1.45,1.75-2.43,2.62-1.63,1.45-3.61,3.2-4.24,6.05-.35-.29-.79-.48-1.27-.48-1.09,0-1.97.88-1.97,1.97s.88,1.97,1.97,1.97M61.33,7.12c.41,1.73,2.67,5.63,2.72,7.29.06,1.82-1.41,5.01-1.41,5.01l-.75-1.31s1.2-1.76,1.2-3.38c0-1.35-1.47-2.27-1.73-3.81,0-.04-.07-.04-.07,0-.25,1.54-1.72,2.46-1.72,3.81,0,1.61,1.2,3.38,1.2,3.38l-.75,1.31s-1.47-3.19-1.41-5.01c.05-1.66,2.31-5.56,2.72-7.29"/>
</svg>